<svg width="70" height="20" viewBox="0 0 70 20" fill="none" xmlns="http://www.w3.org/2000/svg">
<path d="M38.1035 4.74609C41.9016 4.74609 44.9813 8.03003 44.9814 12.0811C44.9814 16.1322 41.9017 19.417 38.1035 19.417C34.3055 19.4169 31.2266 16.1322 31.2266 12.0811C31.2267 8.03012 34.3056 4.74624 38.1035 4.74609ZM38.1025 6.99316C35.485 6.99336 33.3633 9.2704 33.3633 12.0791C33.3634 14.8877 35.4851 17.1648 38.1025 17.165C40.7201 17.165 42.8427 14.8878 42.8428 12.0791C42.8428 9.27028 40.7202 6.99316 38.1025 6.99316Z" fill="#1d4ed8"/>
<path d="M46.9861 5.7723H44.6162L50.2388 20.0028L54.3279 9.78227L58.6029 20.0028L64.2255 5.7723H61.7627L58.3241 14.7214L54.3279 5.23438L50.3317 14.7214L46.9861 5.7723Z" fill="#1d4ed8"/>
<path d="M6.47215 5.24712C8.14948 5.14156 9.80525 5.69454 11.1264 6.80181C12.4332 7.89704 13.3222 9.46007 13.6323 11.2002H11.2993C11.0319 10.218 10.4833 9.34421 9.72312 8.70708C8.83828 7.96547 7.72932 7.59536 6.60593 7.66606C5.4826 7.73677 4.42238 8.24347 3.62547 9.09087C2.82857 9.93831 2.35043 11.0677 2.28074 12.2657C2.21108 13.4637 2.55489 14.6478 3.24754 15.5938C3.9401 16.5396 4.93319 17.1822 6.03953 17.4004C7.14602 17.6187 8.28946 17.3975 9.2534 16.7784C9.98961 16.3054 10.5813 15.6246 10.9702 14.8194H13.4223C12.913 16.5054 11.8489 17.9389 10.4253 18.8536C8.98593 19.7782 7.27866 20.1091 5.62644 19.7833C3.97442 19.4574 2.49164 18.4972 1.4575 17.085C0.423355 15.6726 -0.090746 13.9049 0.0131615 12.1163C0.117178 10.3274 0.832005 8.64047 2.02195 7.37505C3.21186 6.10981 4.79487 5.3527 6.47215 5.24712Z" fill="#1d4ed8"/>
<path d="M61.2842 3.66564C60.382 5.06328 59.8194 7.60702 59.8002 8.55744C60.824 4.46223 62.134 3.99904 62.634 4.23266C64.8915 5.09843 67.0156 4.49644 68.1163 3.97187C68.387 3.8429 68.6107 3.63141 68.7539 3.36757C69.4889 2.01404 69.4942 0.58807 69.3918 0.000760518C68.3198 1.04819 66.6148 1.46629 65.0988 1.58676C63.595 1.70627 62.1068 2.3914 61.2842 3.66564Z" fill="#1d4ed8"/>
<path d="M19.9738 9.01074H23.3243V10.9668H19.9738V19.3809H17.8361V10.9668H15.3322V9.01074H17.8361V6.4707H17.8419C17.8419 4.81065 18.4886 3.21781 19.6388 2.04395C20.6345 1.02808 21.9372 0.397227 23.3243 0.246094V2.44922C22.5064 2.58725 21.7443 2.98193 21.1505 3.58789C20.4015 4.35242 19.9806 5.38962 19.9806 6.4707H19.9738V9.01074ZM30.1105 19.3809H27.9728V6.4707H27.9708C27.9708 5.3897 27.5498 4.35241 26.8009 3.58789C26.2977 3.07437 25.6736 2.71198 24.9972 2.5293V0.299805C26.2447 0.514918 27.4062 1.11901 28.3126 2.04395C29.4628 3.2178 30.1095 4.8107 30.1095 6.4707H30.1105V19.3809Z" fill="#1d4ed8"/>
</svg>
