<svg width="400" height="400" viewBox="0 0 400 400" fill="none" xmlns="http://www.w3.org/2000/svg">
<path d="M281 389.02C281 388.49 282.12 387.31 283.5 386.41C285.87 384.86 286.95 382 285.17 382C283.98 382 280.37 373.84 277.22 364.02L274.49 355.54L266 354.31C252.3 352.33 239.25 349.39 236.68 347.71C231.66 344.42 229.06 334.28 229.02 317.88C229 310.66 229.34 308.84 231.07 306.63C233.69 303.31 239.45 303.1 246 306.1C256.06 310.71 264.99 309.2 269.73 302.1C273.32 296.73 272.76 295.9 266.99 298.1C260.22 300.67 256.76 300.51 253.13 297.45C249.05 294.02 243.31 286.06 242.45 282.66C241.98 280.78 241.28 280.06 240.29 280.44C239.49 280.75 237.36 281 235.56 281H232.29L233.58 285.96C235.74 294.3 231.87 302.36 223.64 306.67C220.29 308.42 213.7 308.61 209.68 307.08C208.14 306.48 206.67 306 206.43 306C206.2 306 205.99 308.59 205.98 311.75C205.95 321.86 204.2 334.77 202.51 337.34C200.05 341.1 195.06 343.01 187.85 342.96C184.36 342.93 166.41 341 147.96 338.67L114.42 334.42L111.11 344.74C109.29 350.41 107.17 355.69 106.4 356.46C104.54 358.32 104.63 359 106.75 359.02C108.25 359.03 108.28 359.17 107 360C105.77 360.79 105.89 360.97 107.63 360.98C110.57 361.01 112.83 363.74 110.61 364.6C108.15 365.54 101.97 364.09 101.33 362.42C100.89 361.28 100.45 361.21 99.3603 362.12C96.9403 364.12 96.5802 362.18 98.3203 356.65C100.03 351.22 100.68 335.54 99.2303 334.64C98.8103 334.38 96.0103 334.81 93.0202 335.59C90.0202 336.36 86.2003 337.02 84.5303 337.05C81.8703 337.09 80.5703 338.33 74.0003 347.13C69.8803 352.64 65.4502 358.31 64.1702 359.72C61.9303 362.17 61.9202 362.25 63.9202 361.73C65.0603 361.43 66.0003 361.6 66.0003 362.09C66.0003 362.59 65.4403 363.05 64.7503 363.12C64.0603 363.18 64.8103 363.52 66.4202 363.87C68.0203 364.22 69.5203 365.06 69.7503 365.75C70.3803 367.64 61.5803 367.4 59.9903 365.49C59.0403 364.34 58.4103 364.25 57.3703 365.11C54.7103 367.31 55.9003 361.11 60.9003 346.66C63.6003 338.87 65.8602 331.83 65.9202 331C65.9902 330.17 66.4603 321.65 66.9803 312.06C67.4903 302.47 68.3603 293.47 68.8903 292.06C69.4303 290.65 70.0603 286.58 70.2803 283C70.7903 274.97 73.6603 267.37 79.4403 258.76C82.5103 254.17 83.4703 252.01 82.5703 251.67C81.8603 251.39 81.0003 249.4 80.6503 247.23C80.1603 244.18 80.5702 242.22 82.4502 238.5C86.0602 231.37 90.1903 228 95.3203 228C98.4103 228 99.8403 227.48 100.75 226.03C103.2 222.11 107.92 220.55 117 220.67C130.13 220.84 141.26 224.08 142.54 228.11C142.87 229.17 142.21 232.73 141.07 236.02C138.55 243.32 138.54 244.38 140.94 249.68C144.03 256.47 150.6 258.71 157.64 255.37C163.64 252.52 165.4 246.54 162.42 239.1C160.52 234.33 161.49 231.85 166.28 229.31C172.3 226.11 192.94 228.11 199.72 232.55C204.88 235.93 205.48 238.25 205.83 256.12L206.17 272.84L209.14 271.8C213.59 270.25 222.18 271.28 225.7 273.78L228.71 275.93L229.31 264.21C229.97 251.17 231.17 245.83 234.1 242.9C236.07 240.93 236.07 240.91 234.08 238.11C231 233.79 230.15 227.98 230.7 215.21C230.98 208.69 230.77 202.39 230.23 201C229.31 198.62 228.87 198.5 221.32 198.5C214.49 198.5 212.84 198.15 209.67 196C205.23 193 201.99 186.83 202.02 181.43C202.05 176.97 204.78 170.33 207.65 167.79C212.75 163.25 223.46 161.53 227.78 164.56L230 166.11V153.12C230 145.98 230.48 138.86 231.06 137.32C233.8 130.06 241.4 126.36 251.73 127.24C256.89 127.68 257.87 127.44 261 124.99C262.92 123.49 267.67 120.66 271.55 118.72C282.84 113.05 283.7 106.9 273.37 105.74C267.71 105.1 262.36 100.25 258.28 92.0798C256.75 89.0098 254.71 85.9197 253.75 85.1997C251.9 83.8097 251.37 80.3997 252.91 79.8298C253.41 79.6497 243.49 65.3297 230.86 47.9997C211.21 21.0597 207.56 16.5497 205.61 16.7997C204.35 16.9697 202.75 16.3997 202.04 15.5497C200.14 13.2597 154.51 13.2197 153.64 15.4997C153.32 16.3297 152.37 16.9997 151.53 16.9997C150.22 16.9997 150 19.1897 150 31.9397C150 40.8197 150.41 47.1297 151 47.4997C151.55 47.8397 152 49.4597 152 51.1097C152 52.7497 152.7 55.4597 153.56 57.1197C154.48 58.8897 154.88 61.2597 154.54 62.8197C153.99 65.3897 154.53 65.7997 167.8 72.7297C177.96 78.0397 181.93 79.6697 182.75 78.8497C184.45 77.1497 186.74 78.5397 187.43 81.6997C187.84 83.5697 189.09 84.9898 191.07 85.8698C196.83 88.4198 197.54 90.8098 197.16 106.44C196.82 120.66 196.36 122.73 192.7 126.75C190.08 129.62 187.5 129.55 182.5 126.47C175.27 122.02 170.18 123.9 168.05 131.81C164.55 144.82 174.5 154.45 186.33 149.51C190.46 147.78 194.24 148.72 195.94 151.89C197.52 154.84 197.3 178.36 195.65 182.3C193.56 187.3 187.84 191.75 182.47 192.56C178.56 193.14 165.14 191.75 161.56 190.39C160.88 190.13 160.5 192.4 160.5 196.82C160.5 202.82 160.14 204.13 157.62 207.44C154.17 211.96 146.95 216.73 142.23 217.62C135.12 218.95 126.72 214.28 122.96 206.91C120.39 201.88 120.48 196.7 123.24 191.79C125.3 188.12 125.34 187.72 123.8 186.6C122.88 185.93 115.92 184.35 108.32 183.1C84.7803 179.23 84.8903 179.38 83.8203 149.76C82.9303 125.15 83.5803 94.3997 85.1503 86.1898C86.4603 79.3298 90.7103 74.3397 96.5602 72.7697C99.3903 72.0197 101.21 70.8397 101.9 69.3097C102.67 67.6197 103.79 66.9997 106.04 66.9997C108.98 66.9997 125.37 63.9197 133.25 61.8897C135.31 61.3597 137 60.3397 137 59.6197C137 58.8997 137.9 57.4997 139 56.4997C140.1 55.4997 141 54.0797 141 53.3497C141 52.6097 141.4 51.9997 141.89 51.9997C143.61 51.9997 144.02 55.2597 142.64 58.0197C140.95 61.3997 141.92 63.2897 145.11 62.8397C147.66 62.4797 147.71 62.1497 146.41 53.2297C146.03 50.6197 146.22 48.4297 146.92 47.5997C148.65 45.5197 149.53 19.6797 147.99 15.9797C147.01 13.6097 147.01 12.6897 148 11.4997C149.59 9.57975 152.41 9.57975 154 11.4997C155.86 13.7397 201.5 13.7397 202.36 11.4997C203.06 9.67975 206.57 9.51975 207.69 11.2497C208.14 11.9397 208.95 13.6797 209.5 15.1297C210.99 19.0497 255.11 79.0397 256.4 78.8897C258.62 78.6297 260 79.0198 260 79.9098C260 80.3997 259.1 80.5798 258 80.2897C256.84 79.9897 256 80.2598 256 80.9398C256 81.6198 256.53 81.7998 257.25 81.3698C258.09 80.8597 258.05 81.1797 257.12 82.3197C255.82 83.9197 255.65 83.9198 254.35 82.2598C253.3 80.9198 253.03 80.8597 253.24 81.9997C253.64 84.2697 255.26 85.0198 256.9 83.6898C258.13 82.6998 258.26 82.8298 257.69 84.4997C257.03 86.4197 257.07 86.4098 258.79 84.3997C261.08 81.7097 263.23 82.4897 268.45 87.8997C272.6 92.1998 274.43 92.9197 275.32 90.6097C275.61 89.8497 278.4 87.9398 281.51 86.3597C284.62 84.7897 288.5 82.3797 290.14 80.9997C292.82 78.7397 293 78.2097 292.05 75.4997C291.4 73.6497 291.31 70.7797 291.82 67.9997C292.5 64.2997 292.3 62.9997 290.73 60.7097C287.11 55.4497 289.81 53.9897 301.36 54.9797C307.33 55.4897 308.55 55.9397 310.73 58.4697C312.97 61.0797 313.16 61.9497 312.58 66.8997C312.16 70.4597 311.24 73.0597 309.97 74.2497C308.89 75.2497 308.02 76.6198 308.04 77.2897C308.1 79.3597 310.38 82.7397 313.25 84.9897C317.88 88.6197 322.4 96.0597 322.67 100.49C322.99 105.82 321.64 109.75 317.46 115.62C315.56 118.3 314 121.66 314 123.08C314 124.5 312.94 127.76 311.64 130.33L309.27 135L312.39 135.01C317.04 135.04 327.52 137.72 332.11 140.05C339.42 143.79 339.52 144.42 339.32 185.57C339.13 226.17 338.09 239.97 334.88 244.34L332.8 247.19L335.31 249.84C339.94 254.76 340.17 257.49 339.83 303.5L339.5 346.5L336.7 351.26L333.9 356.03L337.05 361.94C338.79 365.2 339.89 368.36 339.52 368.97C339.14 369.59 340.06 371.7 341.56 373.67L344.29 377.25L340.4 380.59C333.86 386.2 330.77 386.38 332.99 381.03C334 378.58 334 377.7 332.96 376.45C332.26 375.6 331.01 375.17 330.2 375.48C329.23 375.85 326.02 373.28 321.03 368.16L313.35 360.27L304.68 359.54L296 358.82V368.74C296 374.2 295.69 378.98 295.31 379.36C294.93 379.74 294.74 382.29 294.88 385.02L295.15 390H288.07C284.14 390 281 389.57 281 389.02ZM290.25 388.36C292.31 388.02 294 387.35 294 386.87C294 385.47 288.48 385.87 285.36 387.49C283.06 388.7 282.89 388.99 284.5 388.98C285.6 388.98 288.19 388.7 290.25 388.36ZM292.81 382.74C293.06 381.45 292.48 381 290.57 381C288.13 381 287.13 382.8 288.7 384.37C289.91 385.57 292.46 384.56 292.81 382.74ZM338.79 379.95C340.61 378.3 341.82 376.52 341.49 375.98C340.69 374.68 335.3 378.75 334.68 381.13C334 383.71 334.95 383.44 338.79 379.95ZM337.89 375.63C339.02 374.27 338.45 371 337.08 371C336.7 371 335.53 371.63 334.48 372.39C332.86 373.57 332.78 374.03 333.91 375.39C335.54 377.36 336.41 377.41 337.89 375.63ZM66.7603 354.25C68.9203 351.64 72.8403 346.58 75.4603 343L80.2103 336.5L77.3603 335.97C75.1703 335.56 74.5903 334.97 74.9003 333.47C75.1103 332.38 75.3403 327.58 75.4003 322.8C75.5403 310.67 73.8103 309.48 71.6903 320.26C70.7903 324.84 69.3503 329.99 68.5003 331.7C65.7403 337.23 59.2603 356.46 59.7203 357.75C60.5603 360.11 62.8203 358.99 66.7603 354.25ZM313 358.69C313 358.52 312.09 356.48 310.97 354.17C309.85 351.86 308.19 347.13 307.29 343.67L305.64 337.39L308.68 332.94C312.74 327.01 315.2 322.1 314.77 320.8C314.57 320.22 312.63 322.81 310.46 326.56C308.28 330.31 304.14 335.94 301.25 339.07C296.12 344.63 296 344.91 296 350.81V356.86L301.75 357.49C304.91 357.84 308.17 358.27 309 358.45C311.26 358.93 313 359.04 313 358.69ZM108.82 346.57C110.83 341.19 112.38 334.86 112.74 330.61L113.33 323.57L108.03 327.79C105.12 330.1 102.35 332 101.87 332C100.98 332 100.82 353.84 101.7 355.31C101.97 355.75 102.93 355.97 103.84 355.79C104.91 355.59 106.69 352.29 108.82 346.57ZM274.5 345.25C274.5 334.87 277.17 326.63 283.1 318.74L286.86 313.73L284.94 311.12C283.79 309.56 282.75 305.98 282.36 302.25C281.54 294.28 280.37 292.53 276.77 293.9C274.84 294.63 273.8 296.02 273.02 298.91C270.8 307.17 263.14 312.81 252.88 313.74C247.84 314.2 246.29 313.87 240.49 311.07C230.99 306.49 230.68 306.91 231.17 323.46C231.63 338.79 233.64 344.65 239.39 347.38C242.82 349.01 266.24 353.78 271.5 353.92L274.5 354V345.25ZM333.85 333C334.05 325.02 333.89 307.14 333.49 293.26L332.77 268.01L330.04 271.79C326.67 276.44 318.2 284 316.36 284C314.12 284 314.82 286.25 318.51 290.89C320.43 293.31 322.41 296.91 322.91 298.89C327.75 318.2 328.29 321.4 328.7 333C328.94 339.88 329.63 346.78 330.23 348.34C331.23 350.95 331.41 351.03 332.41 349.34C333 348.33 333.66 340.98 333.85 333ZM194.85 339.57C199.31 337.27 200 334.32 200 317.45C200 305.74 200.3 302.01 201.25 302.03C201.94 302.05 204.75 303.17 207.5 304.52C216.21 308.8 223.06 307.16 227.4 299.75C230.61 294.28 230.66 290.95 227.61 284.4C223.47 275.51 214.85 272.62 205.34 276.93L201.18 278.82L200.84 259.93C200.5 241.06 200.5 241.04 197.87 238.41C194.54 235.09 182.32 232.01 172.5 232.02C163.06 232.03 162.22 232.65 163.78 238.46C165.49 244.85 165.3 247.99 163.01 251.76C157.32 261.09 144.12 262.46 137.09 254.45C134.5 251.5 134 250.11 134 245.8C134 242.98 134.76 238.26 135.69 235.31C137.9 228.29 137.19 227.64 125.07 225.59C113.08 223.57 106.08 223.55 103.22 225.56C100.2 227.67 100.43 228.64 104.12 229.37C110.75 230.7 116.76 241.67 113.54 246.58C112.67 247.91 111.33 249 110.57 249C109.81 249 107.99 251.04 106.53 253.54C104.57 256.88 103.08 258.23 100.85 258.68C99.1903 259.01 97.6203 259.82 97.3703 260.48C97.1103 261.14 98.5002 264.11 100.45 267.07C102.4 270.03 104 272.95 104 273.55C104 276.84 119.58 285.57 123.62 284.56C124.96 284.22 126 284.41 126 284.98C126 285.54 126.68 286 127.5 286C129.61 286 129.37 289.29 127.16 290.67C125.32 291.82 108.33 290.94 103.25 289.43C101.38 288.88 101 289.15 101 291.06C101 292.32 100.46 294.85 99.8003 296.68C98.6803 299.76 98.8102 300.22 101.59 303.25C103.24 305.04 106.77 309.36 109.44 312.85C114.25 319.15 114.3 319.28 114.1 326.1C113.95 331.19 114.24 333.01 115.2 333.05C115.91 333.08 118.3 333.34 120.5 333.64C174.54 340.85 190.01 342.08 194.85 339.57ZM307 318.78V315H302H297V318.94C297 321.85 297.57 323.28 299.16 324.4C301.11 325.77 301.61 325.75 304.16 324.24C306.48 322.87 307 321.88 307 318.78ZM292.81 308.54C303.75 300.68 312.81 298.3 319.19 301.6L322.29 303.2L321.64 299.93C321.28 298.13 319.27 294.38 317.18 291.58C313.66 286.88 310.96 281.88 311.03 280.2C311.05 279.82 311.69 280.33 312.46 281.34C314.29 283.76 317.03 282.87 322.28 278.15C327.52 273.44 332 266.36 332 262.8C332 258.56 329.33 259.23 321.94 265.3C316.62 269.68 315.06 270.48 313 269.9C311.62 269.52 306.96 269.15 302.64 269.1C295.89 269.01 294.87 268.78 295.4 267.41C295.73 266.53 296.28 264.73 296.62 263.4C297.13 261.36 296.93 261.08 295.36 261.62C294.01 262.08 294.25 261.53 296.25 259.59C297.76 258.12 299 256.27 299 255.47C299 253.48 287.98 248.1 282.3 247.32L277.63 246.68L280.03 250.05C281.78 252.5 282.54 255.12 282.83 259.68C283.43 269.07 282.76 270.62 277.03 273.08C274.11 274.34 270.02 277.4 266.99 280.6L261.89 285.99L256.11 281.91C246.27 274.98 240.84 277.97 246.34 287.29C247.71 289.6 250.46 293.07 252.45 294.98C257.3 299.64 261.04 299.48 272.46 294.13C282.08 289.62 282.42 289.51 281.47 291.05C281.11 291.63 281.48 293.54 282.28 295.3C283.09 297.06 283.8 300.49 283.87 302.93C283.98 306.76 286.09 312 287.52 312C287.78 312 290.16 310.44 292.81 308.54ZM98.2803 296.12C99.7202 294.68 95.1302 293.65 93.4502 295.04C92.4002 295.91 91.6402 295.94 90.7002 295.16C89.9802 294.57 88.3903 294.35 87.1702 294.67C85.8002 295.03 84.2303 294.61 83.1103 293.6C82.1103 292.69 80.5703 292.23 79.6803 292.57C78.6803 292.95 77.1803 292.22 75.6702 290.59C73.3302 288.07 71.0003 287.18 71.0003 288.81C71.0003 290.45 76.8803 295.2 80.6403 296.6C84.7703 298.14 96.5802 297.82 98.2803 296.12ZM99.1203 292C99.3603 288.96 98.7603 287.52 96.6603 286.09C92.8003 283.47 86.7003 276.97 87.4103 276.25C87.8003 275.87 88.4902 276.17 88.9502 276.93C89.6202 278.01 90.0802 277.85 91.1403 276.15C91.8803 274.97 93.0303 274 93.7103 274C94.3802 274 95.4103 273.1 96.0003 272C96.5903 270.9 97.7303 270 98.5403 270C99.3403 270 100 269.5 100 268.89C100 266.85 94.0802 260.29 90.7702 258.66C88.9702 257.77 88.0803 257.04 88.8003 257.02C89.5103 257.01 91.3802 257.66 92.9502 258.47C95.4602 259.77 95.9403 259.77 97.0303 258.46C97.7103 257.64 98.7702 257.03 99.3802 257.11C102.1 257.43 103.15 256.8 105.01 253.75C107.56 249.56 107.59 245.38 105.07 244.04C102.18 242.49 100.18 242.77 98.2702 245C97.3302 246.1 95.7603 247 94.7803 247C92.5903 247 92.4902 248.33 94.5303 250.03C95.8903 251.16 95.8203 251.56 93.8903 253.62C91.7503 255.89 90.3003 256.08 86.7503 254.54C85.5203 254.01 84.4102 254.49 83.0303 256.14C81.0103 258.57 80.3403 260.53 81.8503 259.59C82.3202 259.3 83.7502 260.17 85.0303 261.53C86.3003 262.89 86.8803 264 86.3003 264C85.7203 264 84.6803 263.33 84.0003 262.5C82.1003 260.21 79.4502 260.71 78.1302 263.61C77.0802 265.91 77.2303 266.48 79.3903 268.49C82.9003 271.74 86.0303 270.78 88.5003 265.7C89.6003 263.44 91.1803 261.4 92.0003 261.16C92.9202 260.89 92.5503 261.76 91.0503 263.39C89.3303 265.26 88.5803 267.25 88.5503 270.03C88.5003 274.08 87.6603 275.17 86.6503 272.52C86.2403 271.47 85.2203 271.21 83.1803 271.61C81.0803 272.03 80.1203 271.76 79.6803 270.6C78.6003 267.8 75.2903 268.72 74.1003 272.15C72.6702 276.23 72.7103 277 74.3503 277C75.0802 277 76.5203 277.92 77.5303 279.04C78.9003 280.55 80.1003 280.92 82.1803 280.46C84.4903 279.95 85.1702 280.28 86.1003 282.32C87.0903 284.48 91.6203 286.6 94.2503 286.13C94.6603 286.06 95.0003 286.49 95.0003 287.08C95.0003 287.77 93.8403 287.91 91.7503 287.46C87.8503 286.63 86.2902 285.48 85.4502 282.84C85.0702 281.64 84.2603 281.08 83.4103 281.43C82.6303 281.74 81.3503 282.26 80.5602 282.58C79.7402 282.92 78.1802 282.07 76.8802 280.58C73.8402 277.08 72.2202 277.34 71.4502 281.44C70.7302 285.23 71.3902 287 73.5202 287C74.3002 287 75.4103 287.9 76.0003 289C76.6603 290.23 78.1203 291.01 79.7903 291.03C81.2803 291.05 83.2203 291.61 84.1003 292.28C84.9902 292.96 88.6603 293.5 92.3503 293.5C97.5402 293.5 99.0303 293.17 99.1203 292ZM125.36 289.5C125.03 288.63 125.36 287.97 126.14 287.93C126.89 287.89 126.6 287.5 125.5 287.07C123.05 286.1 121 286.76 121 288.52C121 289.84 122.45 290.77 124.72 290.92C125.4 290.97 125.68 290.34 125.36 289.5ZM118.42 289.39C120.8 288.48 120.32 286.1 117.5 284.82C114.61 283.5 114.5 283.57 113.62 287.25C113.07 289.53 113.29 290 114.9 290C115.96 290 117.55 289.73 118.42 289.39ZM110 283.05C110 281.44 101.9 273.94 100.86 274.58C100.39 274.88 100 275.78 100 276.59C100 277.4 99.2103 278.36 98.2503 278.73C96.3903 279.43 94.0003 281.5 94.0003 282.4C94.0003 283.11 99.6302 286.18 103.49 287.58C106.1 288.53 106.69 288.39 108.24 286.43C109.21 285.19 110 283.67 110 283.05ZM112.02 287.48C112.72 286.64 113.06 285.73 112.79 285.45C111.88 284.55 109 286.19 109 287.61C109 289.44 110.44 289.38 112.02 287.48ZM265 279.96C265 278.44 258.03 276 253.85 276.06C250.09 276.11 249.76 276.28 251.37 277.31C252.4 277.96 255.09 279.71 257.35 281.19C261.15 283.68 261.6 283.77 263.23 282.29C264.2 281.41 265 280.36 265 279.96ZM97.4703 277C98.3803 277 98.8503 276.56 98.5202 276.03C98.1902 275.5 98.8403 274.49 99.9603 273.79C102.54 272.18 102.57 271 100.04 271C98.9503 271 97.5903 271.9 97.0003 273C96.4103 274.1 95.3802 275 94.7103 275C93.0303 275 90.7702 278.82 91.6302 280.2C92.0802 280.95 92.9103 280.59 94.0703 279.16C95.0303 277.97 96.5603 277 97.4703 277ZM238.7 279.38C240.52 278.89 240.81 278.29 240.33 275.91C239.95 274.02 240.36 272.09 241.51 270.34C243.15 267.83 243.36 267.77 244.57 269.43C245.28 270.4 246.35 270.9 246.93 270.54C247.58 270.14 248 270.87 248 272.39C248 274.8 248.21 274.88 252.75 274.38C256.47 273.98 258.48 274.37 262 276.18L266.5 278.5L270.59 275.5C274.42 272.69 274.66 272.24 274.21 268.5C273.95 266.3 273.31 263.97 272.8 263.31C272.21 262.57 272.26 261.38 272.93 260.13C274.4 257.39 274.27 256 272.56 256C268.97 256 273.27 246.65 277.33 245.63C280.45 244.85 289.83 247.2 295.07 250.09C299.86 252.73 300.91 255.22 299.16 259.84C298.61 261.31 297.91 263.68 297.6 265.11L297.03 267.73L306.76 268.24L316.49 268.75L321.49 264.24C324.25 261.76 327.47 259.29 328.67 258.75C331.49 257.45 332.21 254.49 330.14 252.67C328.17 250.93 324.58 250.34 307.5 248.97C300.35 248.4 293.71 247.69 292.75 247.4C289.98 246.56 290.7 243.63 294.5 240.27C297.59 237.53 298 236.61 298 232.34C297.98 214.17 270.73 209.93 267.42 227.58C266.95 230.06 267.39 232.76 268.91 236.73C272.19 245.3 271.52 245.64 254.73 244.02C244.2 243.01 240.57 242.99 237.69 243.94C235.67 244.6 233.77 245.56 233.46 246.06C231.53 249.18 229.88 276.38 231.47 278.95C232.18 280.11 235.3 280.29 238.7 279.38ZM244.57 277.23C245.16 276.83 245.94 275.71 246.29 274.75C246.87 273.19 246.43 272.81 244.36 273.09C244.01 273.13 243.3 272.57 242.78 271.84C242.1 270.88 241.97 271.14 242.32 272.75C242.59 273.99 242.42 275 241.94 275C241.46 275 241.32 275.67 241.64 276.5C242.28 278.16 242.97 278.33 244.57 277.23ZM279.37 267.21C279.63 266.78 278.99 266.43 277.93 266.43C276.87 266.43 276 266.78 276 267.21C276 267.65 276.65 268 277.44 268C278.23 268 279.1 267.65 279.37 267.21ZM281.59 260.49C282.37 257.37 280.55 255 277.38 255C275.79 255 275 255.58 274.99 256.75C274.98 257.71 274.7 259.51 274.37 260.75C273.83 262.78 274.12 263 277.36 263C280.37 263 281.07 262.59 281.59 260.49ZM336.13 259.31C337.19 258 337.2 257.79 336.18 258.41C335.29 258.94 334.97 258.71 335.18 257.67C335.49 256.19 335.23 256 333 256C331.62 256 331.74 258.34 333.2 259.8C334.69 261.29 334.49 261.32 336.13 259.31ZM327.77 245.33C331.46 242.58 331.65 240.52 332.52 192L333.24 151.5L330.87 148.11C329.39 146 326.75 144.04 323.83 142.91C318.63 140.89 302.26 138.41 301.19 139.48C300.81 139.86 300.5 151.04 300.5 164.33V188.5L304.92 197.95C309.36 207.46 310.46 213.57 308.4 217.25C307.74 218.43 307.47 217.08 307.48 212.71C307.5 207.4 306.85 205.12 303 197L298.5 187.5L298.83 163.75C299 150.69 298.88 140 298.54 140C298.21 140 296.4 140.64 294.52 141.43L291.11 142.85L290.62 156.18C290.35 163.5 290.12 171.38 290.1 173.67L290.07 177.85L284.46 178.55C277.16 179.46 275.56 178.11 279.3 174.21C281.59 171.82 281.78 171.2 280.61 169.95C279.33 168.6 272.52 148.93 271.8 144.5C271.15 140.5 268.37 142.7 262.04 152.25C258.48 157.61 254.97 162 254.23 162C253.5 162 252.41 163.38 251.82 165.08C250.65 168.45 249.81 168.49 242.62 165.49C238.29 163.68 238.33 161.91 242.71 160.65C245.36 159.9 245.83 159.22 246.25 155.64C246.52 153.36 248.59 147.25 250.84 142.05C253.1 136.86 254.76 132.42 254.53 132.19C254.3 131.97 251.23 131.55 247.72 131.27C242.94 130.88 240.42 131.18 237.75 132.45C232.21 135.08 231.45 138.07 231.83 155.75C232.12 169.12 231.96 171.08 230.53 171.63C229.57 171.99 227.99 171.42 226.7 170.25C219.31 163.53 209.75 164.78 205.48 173.04C203.32 177.22 203.58 185.8 205.99 189.76C209.5 195.5 213.41 197.21 221.78 196.64C228.78 196.17 229.12 196.25 230.78 198.79C232.24 201.03 232.46 203.57 232.23 215.77C231.99 228.27 232.21 230.68 233.94 234.59C236.61 240.64 239.65 241.75 255.86 242.61C269.82 243.34 270.25 243.2 267.84 238.71C264.12 231.76 265.04 224.26 270.23 219.31C278.83 211.09 293.2 214.42 298.23 225.79C300.98 232.01 300.19 237.62 296.07 241.07C290.87 245.43 291.45 245.85 305 247.39C306.92 247.61 312.22 247.69 316.77 247.57C323.29 247.4 325.62 246.93 327.77 245.33ZM148.69 212.83C151.75 209.98 154 205.81 154 203.01C154 201.86 153.1 199.16 152 197C149.31 191.72 149.47 190.46 153.02 188.99C156.13 187.7 157.53 187.82 169.75 190.46C178.72 192.4 184.51 191.64 188.08 188.07C190.49 185.66 190.72 184.62 191.36 173.27C191.92 163.42 191.76 160.36 190.53 157.41C188.92 153.56 188.73 153.53 182.44 156.06C180.68 156.77 177.91 157.02 175.91 156.64C171.74 155.86 165.56 150.98 163.36 146.73C159.62 139.5 162.59 128.27 169.34 124.1C173.76 121.37 176.48 121.45 182.21 124.5C188.92 128.07 190.74 127.83 191.66 123.25C192.07 121.19 192.43 114.32 192.46 108C192.5 97.5197 192.29 96.2098 190.17 93.2298C186.91 88.6698 183.96 87.4198 170.92 85.0498C149.86 81.2398 112.59 75.8997 102.95 75.3197L93.4003 74.7298L90.7303 77.9098C85.8703 83.6797 85.5903 86.4997 85.5503 129C85.5003 172.61 85.7603 174.79 91.1903 177.6C92.8503 178.46 100.51 180.23 108.21 181.54C126.11 184.57 129.2 186.42 125.42 191.81C121.41 197.53 121.87 204.31 126.65 209.99C132.65 217.13 142.71 218.42 148.69 212.83ZM289 175.17C289 173.82 288.25 173.33 286.14 173.33C284.44 173.33 282.81 174.08 282.13 175.17C281.09 176.83 281.35 177 284.99 177C288.21 177 289 176.64 289 175.17ZM287.25 171.34C286.56 171.06 285.44 171.06 284.75 171.34C284.06 171.62 284.62 171.84 286 171.84C287.38 171.84 287.94 171.62 287.25 171.34ZM289.18 164.5C290.37 157.77 290.14 143.21 288.84 142.78C288.2 142.57 289.89 141.57 292.59 140.57C299.05 138.16 299.37 137.78 298.57 133.5C298.03 130.62 297.25 129.63 294.85 128.8C292.17 127.87 291.86 127.35 292.19 124.5C292.55 121.38 292.34 121.16 286.31 118.53L280.06 115.81L271.78 120.33C262.36 125.48 258.28 129.34 254.73 136.5C252.6 140.79 247 155.31 247 156.53C247 157.15 252.73 160 253.97 160C254.56 160 257.3 156.51 260.07 152.25C262.84 147.99 266.65 143.06 268.55 141.3C270.45 139.54 272 137.27 272 136.25C272 134.21 276.56 129.57 282 126.07C284.8 124.27 284.47 124.78 280.33 128.66C271.47 136.97 271.26 138.74 277.07 156.6L281.14 169.11L284.81 168.81C288.23 168.52 288.52 168.23 289.18 164.5ZM251 164.44C251 163.65 250.35 163 249.56 163C248.77 163 247.81 162.5 247.43 161.89C246.97 161.14 247.5 161.01 249.12 161.5C251.33 162.16 251.39 162.1 249.88 160.52C248.36 158.94 248.09 159 245.63 161.46L243 164.09L246.24 165.46C249.76 166.94 251 166.68 251 164.44ZM305.81 134.97C308.73 133.19 312 127.95 312 125.03C312 123.37 308.99 123.84 305.38 126.07C301.6 128.41 298.48 127.96 297.7 124.97C297.37 123.7 296.35 123.01 294.84 123.03C292.75 123.06 292.69 123.17 294.27 124.09C295.25 124.66 295.81 125.49 295.53 125.95C295.25 126.4 295.85 126.99 296.86 127.25C298.02 127.56 299.21 129.46 300.07 132.37C300.82 134.92 301.68 137 301.97 137C302.26 136.99 303.99 136.08 305.81 134.97ZM306.52 123.36C315.88 117.16 321 110.16 321 103.54C321 101.59 320.76 99.9997 320.47 99.9997C320.17 99.9997 317.61 101.18 314.76 102.62C308.38 105.85 305.31 105.15 303.32 99.9997L301.97 96.4997L302.49 99.8997C303.08 103.76 304.6 106 306.62 106C309.51 106 307.16 110.82 301.14 117.23C297.89 120.69 297.73 121.13 298.99 123.48C300.68 126.65 301.58 126.63 306.52 123.36ZM287.5 114C285.37 111.82 283.4 110.26 283.13 110.54C282.85 110.81 284.37 112.82 286.5 115C288.63 117.18 290.6 118.74 290.87 118.46C291.15 118.19 289.63 116.18 287.5 114ZM284.48 103.03C285.87 100.3 286.97 96.8097 286.93 95.2797C286.88 93.1397 286.57 93.5798 285.6 97.1898C284.17 102.49 282.46 105 280.26 105C279.04 105 278.99 105.28 280 106.5C280.68 107.32 281.41 108 281.61 108C281.8 108 283.1 105.76 284.48 103.03ZM267.89 95.9997C263.35 91.0498 259.27 86.9997 258.82 86.9997C255.17 86.9997 265.38 101.9 270.5 104.04C276.45 106.52 275.84 104.67 267.89 95.9997ZM280 103.08C280 100.62 275.91 92.9398 274.92 93.5498C274.31 93.9198 272.17 92.6998 270.16 90.8298C262.67 83.8798 261.97 83.4398 260.97 85.0397C260.28 86.1397 262.21 88.6697 268.76 95.2497C276.7 103.24 280 105.54 280 103.08ZM301.94 90.9597C306.51 86.3897 309.06 81.7297 307.73 80.3897C307.44 80.1097 306.04 81.0597 304.6 82.4897C301.98 85.1097 296.27 87.9997 293.71 87.9997C292.77 87.9997 292.45 86.8798 292.66 84.2998C292.94 80.6298 292.94 80.6198 290.98 82.5798C289.02 84.5397 289.02 84.5798 291 90.0098C292.1 93.0098 293 95.5897 293 95.7397C293 95.8797 293.88 95.9997 294.95 95.9997C296.03 95.9997 299.17 93.7297 301.94 90.9597ZM303.75 81.7097C304.99 80.5798 306 79.0797 306 78.3797C306 77.6797 307.07 75.8697 308.38 74.3497L310.75 71.5797L308.33 70.3297C307 69.6397 304.58 69.3297 302.95 69.6597C301.22 70.0097 299.38 69.7297 298.5 68.9997C297.25 67.9597 297 68.0997 297 69.8797C297 71.0397 296.55 71.9997 296 71.9997C295.45 71.9997 295 71.3197 295 70.4997C295 69.6797 294.55 68.9997 294 68.9997C292.18 68.9997 292.95 75.6598 295.07 78.3698C296.21 79.8098 296.71 80.9997 296.18 80.9997C294.86 80.9997 293.94 83.6698 294.63 85.4798C295.12 86.7598 295.6 86.7497 298.35 85.3597C300.08 84.4798 302.51 82.8397 303.75 81.7097ZM186 81.9997C186 80.8997 185.58 79.9997 185.06 79.9997C183.72 79.9997 182.77 81.8197 183.5 82.9997C184.55 84.6898 186 84.1097 186 81.9997ZM180.45 81.1497C179.93 80.6797 173.43 77.1797 166 73.3697C153.19 66.8097 152.32 66.5097 149.04 67.5997C144.88 68.9697 140.21 67.8897 137.84 65.0097C135.75 62.4797 135.06 62.5097 120.5 65.8297C103.13 69.7897 103.95 70.8897 126.37 73.6897C144.57 75.9597 175.16 80.8397 175.92 81.5897C176.15 81.8097 177.47 81.9997 178.87 81.9997C180.34 81.9997 181 81.6397 180.45 81.1497ZM105.81 69.9297C105.61 69.3297 105.02 68.8497 104.5 68.8497C103.98 68.8497 103.39 69.3297 103.19 69.9297C102.99 70.5197 103.58 70.9997 104.5 70.9997C105.42 70.9997 106.01 70.5197 105.81 69.9297ZM307.87 66.6097C306.41 63.4097 302.78 61.5897 299.51 62.4097C296.05 63.2797 296.83 65.5997 300.43 65.1697C302.26 64.9397 303.85 65.5397 305.14 66.9197C307.77 69.7397 309.22 69.5797 307.87 66.6097ZM311.98 64.4397C311.99 63.3097 311.34 61.5097 310.53 60.4397C309.14 58.5897 309.06 58.6497 309.05 61.4997C309.02 66.1397 310.1 69.4497 311.12 67.8297C311.59 67.0997 311.98 65.5697 311.98 64.4397ZM149.83 66.1197C151.63 64.9897 148.48 63.7097 145.9 64.5297C141.75 65.8497 138.25 61.1497 141.18 58.2197C141.83 57.5697 142.09 56.7597 141.76 56.4197C141.42 56.0897 140.38 57.2897 139.45 59.0997C137.77 62.3497 137.78 62.4097 140.43 64.6897C143.14 67.0297 147.39 67.6697 149.83 66.1197ZM152.69 60.7497C151.66 54.4697 149.65 47.9997 148.74 47.9997C147.91 47.9997 148.17 53.3497 149.35 60.9997C149.85 64.1697 149.72 63.9997 151.61 63.9997C152.87 63.9997 153.1 63.2897 152.69 60.7497ZM297.53 61.3897C299.14 60.3297 300.91 60.0097 302.67 60.4497C305.01 61.0397 305.19 60.9297 304.06 59.5697C302.26 57.3997 295.72 55.5997 292.54 56.3997L289.91 57.0597L292.02 60.0297C294.49 63.4997 294.36 63.4697 297.53 61.3897ZM308 60.0697C308 58.7897 305.1 55.9997 303.75 55.9997C303.15 55.9997 303.71 57.1197 305 58.4997C307.57 61.2397 308 61.4597 308 60.0697ZM152.66 14.4297C153.5 12.2597 151.38 10.2197 149.87 11.7297C148.59 13.0097 149.38 15.9997 151 15.9997C151.58 15.9997 152.33 15.2897 152.66 14.4297ZM207 13.4997C207 10.9597 204.72 10.0197 203.47 12.0497C202.51 13.6097 203.72 15.9997 205.47 15.9997C206.44 15.9997 207 15.0797 207 13.4997ZM286.15 264.83C286.66 262.54 286.84 259.28 286.55 257.58C286.12 255.17 286.21 254.94 286.93 256.5C288.58 260.05 287.9 269 285.99 269C285.56 269 285.63 267.12 286.15 264.83ZM98.2503 255.34C96.9103 254.8 96.5003 252 97.7603 252C98.1803 252 99.0802 252.9 99.7702 254C101.01 255.99 100.65 256.3 98.2503 255.34ZM102.71 251.99C102.42 250.89 102.55 250 102.99 250C104.16 250 105.05 252.85 104.07 253.46C103.61 253.74 102.99 253.08 102.71 251.99ZM100 249.08C100 248.58 99.7303 247.45 99.3903 246.58C98.9703 245.48 99.3503 245.02 100.64 245.08C101.66 245.12 101.99 245.37 101.36 245.63C100.73 245.88 100.44 246.97 100.72 248.05C101 249.12 100.96 250 100.62 250C100.28 250 100 249.59 100 249.08ZM276 260.12C276 259.57 276.45 258.84 277 258.5C277.55 258.16 278 258.33 278 258.88C278 259.43 277.55 260.16 277 260.5C276.45 260.84 276 260.67 276 260.12ZM283.02 138.37C278.95 134.94 279.34 132.12 284.24 129.5C288.44 127.25 289.97 127.73 293.45 132.41L295.5 135.16L292.23 138.08C288.22 141.67 287 141.71 283.02 138.37ZM289.5 137.99C289.85 137.44 289.42 136.72 288.56 136.39C287.7 136.06 287 135.16 287 134.39C287 133.63 286.58 133 286.06 133C284.39 133 283.88 134.9 284.99 136.98C286.14 139.13 288.48 139.66 289.5 137.99ZM293 134.63C293 133.94 292.36 132.51 291.57 131.44C290.39 129.85 289.9 129.73 288.83 130.79C287.93 131.67 287.85 132.31 288.58 132.79C289.17 133.18 289.95 134.32 290.32 135.31C291.03 137.24 293 136.74 293 134.63ZM288 129.29C288 128.27 281.63 132.6 281.2 133.91C280.94 134.68 282.37 134.06 284.37 132.53C286.36 131.01 288 129.55 288 129.29ZM299.21 89.6397C302.12 87.2397 304.72 85.4798 305 85.7197C305.72 86.3597 296.74 93.9297 295.21 93.9697C294.5 93.9897 296.3 92.0397 299.21 89.6397ZM297 76.1198C297 75.6298 297.9 74.9997 299 74.7097C301.36 74.0897 301.71 75.5098 299.42 76.3897C297.32 77.1997 297 77.1598 297 76.1198ZM150 13.4397C150 12.5797 150.45 12.1597 151 12.4997C151.55 12.8397 152 13.5397 152 14.0597C152 14.5797 151.55 14.9997 151 14.9997C150.45 14.9997 150 14.2997 150 13.4397ZM204.5 13.9997C204.16 13.4497 204.36 12.9997 204.94 12.9997C205.52 12.9997 206 13.4497 206 13.9997C206 14.5497 205.8 14.9997 205.56 14.9997C205.32 14.9997 204.84 14.5497 204.5 13.9997Z" fill="#353535"/>
</svg>
