<svg width="400" height="400" viewBox="0 0 400 400" fill="none" xmlns="http://www.w3.org/2000/svg">
<path d="M148.5 344.46C107.68 340.91 105.81 340.68 105.23 339.15C104.88 338.25 105.53 337.06 106.82 336.2C108.04 335.39 109 333.71 109 332.38V330H86.9996C72.9996 330 64.9996 329.64 64.9996 329C64.9996 328.4 68.9196 328 74.7496 328C80.1096 327.99 90.2396 327.7 97.2496 327.34L110 326.69V320.47C110 317.05 109.72 312.84 109.38 311.12C108.8 308.23 108.44 308 104.62 307.99C102.36 307.99 97.4596 307.7 93.7496 307.35C88.2496 306.83 86.9996 306.39 86.9996 304.97C86.9996 304.02 87.8396 303.01 88.8696 302.74C90.3696 302.35 90.8896 300.88 91.4996 295.38C92.9396 282.34 91.8396 275 88.4596 275C86.6796 275 86.5096 272.36 88.2496 271.68C88.9396 271.41 96.6996 271.36 105.5 271.57C114.3 271.77 120.6 271.69 119.5 271.38C115.71 270.34 115 268.06 114.89 256.56C114.83 250.48 114.49 242.8 114.14 239.5L113.5 233.5L107.15 240C103.65 243.57 98.0696 250.1 94.7396 254.5C91.4096 258.9 88.2196 262.36 87.6596 262.19C86.0496 261.7 70.2496 249.31 62.4996 242.45C47.2696 228.98 38.8296 218.88 33.3896 207.59L30.0596 200.67L33.2496 194.59C37.4596 186.57 47.2596 176.84 58.9996 169.02C64.2196 165.54 70.1396 161.41 72.1396 159.84C74.1496 158.28 76.0296 157 76.3296 157C76.6296 157 78.8996 161.28 81.3696 166.5C87.2996 179.02 95.7596 191.48 105 201.33C112.48 209.29 112.5 209.31 113.02 206.41C113.45 204.02 114.04 203.51 116.27 203.54C119.71 203.59 119.68 203.4 116 201.5C113.11 200.01 113 199.69 113 193.17C113 183.6 113.48 183.19 126 182.02C136.74 181.02 170.62 179 176.77 179H180.18L175.53 174.47C172.83 171.85 169.53 167.13 167.69 163.22C164.83 157.2 164.5 155.56 164.51 147.5C164.52 139.51 164.88 137.76 167.66 131.85C171.88 122.92 170.49 121.34 163.87 127.53C161.24 129.99 158.69 132 158.2 132C155.68 132 153.5 127.59 153.5 122.48C153.5 118.18 154.08 116.35 156.54 112.84C161.96 105.14 172.18 101.63 177.78 105.56C180.8 107.68 180.59 108.95 176.4 113.84C174.19 116.43 173.03 118.65 173.4 119.61C173.9 120.9 174.68 120.63 177.91 118.07C189.2 109.13 205.26 106.56 218.37 111.59C219.38 111.98 220 111.7 220 110.86C220 110.11 217.86 108.38 215.25 107C209.64 104.04 208.82 101.46 212.43 98.0703C217.81 93.0103 231.04 94.6903 236.44 101.12C239.9 105.23 241.44 110.75 240.1 114.25C238.85 117.53 238.5 117.56 231.86 115.04C229.01 113.96 226.27 113.33 225.77 113.64C225.26 113.96 227.33 116.44 230.38 119.15C234.02 122.39 236.98 126.25 239.02 130.39C246.39 145.37 245.09 158.35 234.73 173.28C233.09 175.65 235.12 176.96 240.5 176.99C248.16 177.03 301.99 190.81 302.81 192.94C303.4 194.47 301.29 218.07 300.35 220.54C299.96 221.54 298.17 222.03 294.64 222.09C289.51 222.18 289.51 222.18 293 223.17C294.92 223.71 296.93 224.58 297.47 225.09C298.89 226.48 298.15 255.28 296.67 256.22C296.03 256.63 293.48 257.04 291 257.12L286.5 257.27L291.25 257.93C293.86 258.29 296.47 259.07 297.04 259.64C297.64 260.24 297.97 263.68 297.8 267.6L297.5 274.5L285 275.05C278.12 275.35 274.33 275.69 276.56 275.8C284.15 276.18 284.46 276.86 284.82 293.85L285.14 308.86L291.82 309.5C295.49 309.85 299.07 310.32 299.77 310.55C301.79 311.19 303 315.64 303 322.44V328.76L317.75 329.4C349.83 330.81 353.4 332.69 322.92 332.13L303 331.77L302.98 337.13C302.98 340.09 302.55 343.16 302.04 343.97C301.24 345.23 291.53 345.45 231.81 345.56C184.66 345.64 158.02 345.29 148.5 344.46ZM166.56 334.32C166.95 330.65 166.87 324.24 166.39 320.07L165.5 312.5L153.5 311.79C146.9 311.4 134.75 310.67 126.5 310.16C118.25 309.65 111.43 309.29 111.34 309.37C111.25 309.44 111.42 311.64 111.72 314.25C112.17 318.25 112.6 319 114.38 319.02C115.55 319.02 117.18 319.47 118 320C119.12 320.72 118.57 320.97 115.84 320.98L112.17 321L111.46 328.54C111.07 332.69 110.92 336.24 111.13 336.43C111.56 336.82 155.42 340.68 161.67 340.87L165.84 341L166.56 334.32ZM202 335.15C207.8 329.35 206.57 319.92 199.59 316.61C196.09 314.95 195.76 314.95 192.23 316.69C184.85 320.31 184.3 331.77 191.3 336.04C195.72 338.74 198.66 338.49 202 335.15ZM292.75 337.37C294.9 336.79 295 336.31 295 326.38V316H262H229V323.88C229 328.21 229.28 333.16 229.62 334.88L230.25 338L260.38 337.99C276.94 337.98 291.51 337.7 292.75 337.37ZM275.5 309.85C270.46 308.92 172.1 308.9 169.8 309.82C168.87 310.19 193.17 310.52 223.8 310.54C254.44 310.56 277.7 310.25 275.5 309.85ZM148.57 301.4C149.43 295.66 148.21 279.75 146.85 278.91C146.29 278.56 139.69 277.99 132.17 277.63C124.65 277.28 112.69 276.7 105.59 276.34C93.5996 275.75 92.7196 275.82 93.3396 277.43C93.6996 278.38 93.9996 280.46 93.9996 282.04C93.9996 284.55 94.4596 285 97.7496 285.67L101.5 286.42L97.9996 286.96L94.4996 287.5L93.6096 294.78C93.1196 298.78 92.9496 302.29 93.2396 302.57C93.8596 303.2 129.21 305.68 140.19 305.87L147.88 306L148.57 301.4ZM249.75 304.01L277 304V293.64V283.28L271.75 282.65C268.86 282.3 254.01 282.01 238.75 282.01L211 282L211.01 289.75C211.02 294.01 211.31 299.24 211.66 301.37L212.3 305.24L217.4 304.63C220.21 304.29 234.76 304.01 249.75 304.01ZM184.31 301.59C191.42 295 186.97 282 177.61 282C171.42 282 166.8 289.84 169.03 296.59C171.37 303.68 179.26 306.27 184.31 301.59ZM279.72 273.34L296.94 272.69L296.33 266.59C295.99 263.24 295.52 260.28 295.28 260C295.04 259.73 289.7 259.35 283.42 259.15C277.14 258.95 272 258.38 272 257.89C272 257.4 272.56 256.98 273.25 256.96C277.64 256.8 295.19 255.14 295.47 254.85C295.65 254.66 295.96 248.01 296.15 240.08L296.49 225.66L287 223.71C279.52 222.17 273.54 221.76 258.88 221.79C240.3 221.83 240.24 221.84 232.69 224.98C228.53 226.72 216.68 232.33 206.36 237.45L187.61 246.76L180.85 237.13C170.2 221.95 170.87 222.58 165.6 222.85C159.27 223.18 159.79 221.42 166.25 220.65C174.27 219.68 202.59 220.06 197 221.05C194.52 221.49 188.11 221.89 182.75 221.93C177.39 221.97 173 222.27 173 222.6C173 222.92 174.69 225.11 176.75 227.46C178.81 229.8 182.25 234.71 184.39 238.37L188.28 245.02L191.39 242.94C202 235.85 246.32 216.19 267.87 209.02C279.08 205.29 275.42 207.47 260.24 213.57L245.5 219.5L272 220C286.58 220.27 298.55 220.5 298.61 220.5C298.66 220.5 298.99 219.04 299.33 217.25L299.95 214L289.73 213.88C281.57 213.79 280.31 213.6 283.5 212.94C285.7 212.49 290.31 212.09 293.75 212.06C299.88 212 300 211.95 300.01 209.25C300.02 207.74 300.3 205.49 300.63 204.25C301.21 202.07 301 202 293.87 201.9C285.77 201.79 287.67 200.28 296.13 200.1C300.36 200.01 300.81 199.76 301.3 197.25C301.59 195.74 301.67 194.35 301.49 194.16C301.21 193.87 278.97 194.75 241.5 196.53C227.05 197.21 180.27 199.79 167.25 200.62L157 201.27V237.05C157 264.74 157.28 272.95 158.25 273.34C160.12 274.09 259.86 274.09 279.72 273.34ZM124.73 272.4C124.4 272.06 123.53 272.03 122.81 272.32C122.01 272.64 122.25 272.87 123.42 272.92C124.47 272.96 125.06 272.73 124.73 272.4ZM154.79 257.25C154.63 248.59 154.67 232.33 154.87 221.11L155.23 200.72L136.87 193.9C126.77 190.15 117.69 187.06 116.7 187.04C115.13 187.01 114.94 187.77 115.2 193.15C115.41 197.36 115.97 199.54 117 200.08C117.82 200.52 120.53 202.07 123 203.52L127.5 206.16L121.12 205.52C114.81 204.88 114.74 204.9 115.35 207.19C115.69 208.46 115.98 212.49 115.99 216.14L116 222.77L127.25 225.59C140.41 228.89 139.58 230.02 126.18 227.04C121.14 225.92 116.79 225 116.51 225C115.82 225 115.88 233.78 116.64 243.63L117.28 251.76L130.89 255.09C138.38 256.92 143.51 258.58 142.3 258.77C141.1 258.97 135.32 257.97 129.47 256.56C123.62 255.15 118.38 254 117.81 254C116.62 254 117.1 267.43 118.32 268.66C119.98 270.32 136.03 272.86 145.29 272.93L155.09 273L154.79 257.25ZM90.4496 256.75C94.0096 250.58 105.1 237.01 109.65 233.26L114.21 229.5L113.59 221.12L112.97 212.73L105.88 205.62C95.4696 195.16 87.6296 184.22 81.3096 171.33L75.7096 159.9L73.1096 162.3C71.6696 163.62 65.6696 167.96 59.7596 171.94C53.8596 175.92 46.9396 181.5 44.3796 184.34C38.7296 190.6 32.9996 198.95 32.9996 200.9C32.9996 203.28 39.9096 215.1 45.1696 221.71C47.8896 225.13 54.0196 231.59 58.8096 236.08C68.0196 244.71 86.5496 260 87.8196 260C88.2296 260 89.4096 258.54 90.4496 256.75ZM198.5 196.57C210.05 195.78 233.68 194.63 251 194.02C268.33 193.41 285.88 192.63 290 192.29L297.5 191.67L272 185.34C257.98 181.86 244.07 178.71 241.11 178.35L235.72 177.69L236.39 181.25C237.26 185.92 235.81 186.38 229.75 183.34L224.99 180.96L221.25 182.87C215.56 185.75 206.53 187.29 199.6 186.55C193.58 185.9 193.45 185.94 190.05 189.45C188.16 191.4 185.8 193 184.8 193C183.27 193 183 192.12 183 187V181L175.75 181.02C171.76 181.03 158.15 181.7 145.5 182.51C132.85 183.31 121.19 183.98 119.58 183.98C117.98 183.99 116.96 184.3 117.33 184.66C117.69 185.03 125.98 188.38 135.74 192.13L153.5 198.93L165.5 198.47C172.1 198.22 186.95 197.37 198.5 196.57ZM220 180.84C228.11 177.06 234.39 170.99 238.21 163.22C241.15 157.25 241.5 155.63 241.5 148.02C241.5 140.88 241.07 138.58 238.84 133.82C230.4 115.82 210.12 106.9 191.73 113.09C181.03 116.7 173.34 123.61 168.72 133.77C167.07 137.41 166.56 140.49 166.54 147.12C166.5 155.24 166.73 156.2 170.5 163.58C175.09 172.59 181.8 178.6 191.05 182.02C198.95 184.95 212.36 184.4 220 180.84ZM171.75 114.89C178.37 107.95 178.58 106.44 172.99 105.92C167.98 105.46 166 106.07 162.48 109.16C155.75 115.06 153.26 123.08 156.65 127.91L158.3 130.27L161.87 125.88C163.84 123.47 168.28 118.53 171.75 114.89ZM238.43 112.4C239.43 108.42 235.77 101.8 231.11 99.1803C225.27 95.9003 217.22 96.1403 213.4 99.7003L210.5 102.4L214.5 103.91C216.7 104.73 222.55 107.5 227.5 110.05C232.45 112.61 236.79 114.76 237.14 114.85C237.49 114.93 238.08 113.83 238.43 112.4ZM319.5 168.11C312.83 166.29 296.41 159.61 294.69 158.03C294.24 157.62 296.76 155.01 300.29 152.24C322.9 134.47 323.54 118.9 302.59 96.2703L297.25 90.5003L315.87 90.8403C330.02 91.1003 336.67 90.7903 343.5 89.5403C348.45 88.6403 353.85 87.6603 355.5 87.3703C358.32 86.8703 358.61 87.1203 360.34 91.6703C371.6 121.22 372.45 131.08 365.09 146.65C361.84 153.52 351.6 165.02 346.62 167.38C341.11 169.99 327.71 170.35 319.5 168.11ZM346.27 165.5C349.4 164.21 359.01 151.72 362.8 144C366.33 136.81 366.49 136.07 366.49 126C366.5 116.17 366.22 114.7 362.14 103C359.74 96.1203 357.43 90.1303 357.02 89.6803C356.61 89.2303 353.84 89.5703 350.88 90.4203C347.92 91.2803 343.02 92.4603 340 93.0403C333.83 94.2403 312.09 94.4803 306.41 93.4203L302.71 92.7203L308.33 99.3503C316.32 108.76 319.21 114.91 319.79 123.72C320.44 133.75 317.66 139.29 306.83 149.48C302.39 153.66 298.92 157.25 299.12 157.45C300.17 158.49 316.21 164.5 321 165.64C326.58 166.98 342.89 166.88 346.27 165.5ZM49.3096 137.7C44.3196 131.07 39.2496 119.29 37.4196 110.06C36.0896 103.36 35.8396 97.8503 36.1996 83.2603C36.7396 61.8103 36.4796 62.3703 47.6396 58.4903C56.7196 55.3303 66.9896 54.3303 85.3396 54.8103C99.9896 55.1903 100.17 55.2203 99.5396 57.3503C91.8996 82.9303 94.1696 110.2 105.43 128.03L108.89 133.5L95.6896 134.16C82.9496 134.8 66.0696 137.65 57.7696 140.58C55.5596 141.36 53.4696 141.99 53.1196 141.97C52.7796 141.95 51.0596 140.03 49.3096 137.7ZM60.1296 137.61C70.7896 133.62 81.6596 131.65 93.4996 131.57L104.5 131.5L100.44 123.42C94.6296 111.86 92.5096 102.15 92.5996 87.5003C92.6696 76.9803 93.8596 68.6603 96.5496 59.9003C96.9796 58.5103 95.2696 58.2303 83.2696 57.7203C66.4896 57.0203 55.3196 58.1803 46.1396 61.5803L39.1996 64.1603L38.4896 79.4303C37.3496 103.72 40.6796 121 48.9696 133.83C51.1596 137.22 53.1396 140 53.3596 140C53.5796 140 56.6296 138.93 60.1296 137.61ZM129.05 130.34C130.12 127.23 131 124.11 131 123.4C131 122.7 128.53 120.41 125.51 118.31C122.49 116.21 120.02 114.23 120.01 113.9C120.01 113.57 123.04 112.03 126.75 110.48C130.46 108.93 133.68 107.52 133.9 107.35C134.12 107.17 132.4 102.71 130.07 97.4303C127.75 92.1503 126.04 87.6303 126.28 87.3903C126.52 87.1503 130.35 88.5103 134.8 90.4103L142.88 93.8703L145.58 85.7503L148.29 77.6203L152.7 86.4003C157.81 96.5703 157.99 100.48 152.92 91.2503C151.04 87.8303 149.23 85.0203 148.91 85.0103C148.58 85.0103 147.5 87.7003 146.5 91.0003C145.5 94.3003 144.52 97.0003 144.32 97.0003C144.12 97.0003 140.97 95.6503 137.32 93.9903C133.67 92.3403 130.5 91.1703 130.27 91.4003C130.04 91.6303 131.46 95.2903 133.43 99.5503C135.39 103.8 137 107.61 137 108.01C137 108.41 134.3 109.91 131 111.34C127.7 112.77 125 114.14 125 114.39C125 114.64 126.46 115.77 128.25 116.92C135.13 121.33 135.16 121.37 133.63 125.11C130.26 133.33 130.27 133.37 135.14 132.6C137.54 132.22 140.62 131.64 142 131.32C147.47 130.05 142.28 132.9 136.36 134.42C126.71 136.9 126.78 136.94 129.05 130.34ZM260.22 129.06C250.5 126.28 251 124.78 260.88 127.06C263.29 127.61 265.42 127.91 265.61 127.73C265.8 127.54 265.06 125.04 263.97 122.17L261.99 116.96L266.5 113.79C268.97 112.04 270.99 110.36 270.98 110.06C270.97 109.75 268.5 108.43 265.48 107.13C262.47 105.82 260 104.4 260 103.96C260 103.52 261.57 99.8903 263.48 95.9003C265.4 91.9003 266.82 88.4803 266.64 88.3103C266.46 88.1303 263.43 89.3003 259.91 90.9103L253.5 93.8403L251.82 90.1703C250.9 88.1503 250.11 85.7103 250.07 84.7503C249.94 81.6703 248.19 82.8603 245.31 88.0003C242.89 92.3003 241 94.2703 241 92.4803C241 91.5903 249 76.0003 249.45 76.0003C249.69 76.0003 250.9 79.1503 252.14 83.0003C253.38 86.8503 254.71 90.0003 255.09 90.0003C255.48 90.0003 259.03 88.6203 263 86.9303C266.96 85.2503 270.39 84.0603 270.62 84.2903C270.85 84.5203 269.23 88.6403 267.02 93.4503C262.64 102.99 262.38 103.96 264.25 104.08C264.94 104.12 268.15 105.37 271.39 106.86L277.28 109.56L271.64 113.45C268.54 115.58 266 118.05 266 118.92C266 119.79 266.9 122.86 268 125.75C270.35 131.94 270.32 131.95 260.22 129.06ZM142.5 334.33C129.6 333.26 118.38 331.73 117.55 330.93C116.3 329.71 116.54 329.72 135.99 331.6C145.07 332.48 152.93 333.6 153.45 334.1C154.38 334.98 151.17 335.05 142.5 334.33ZM143 324.72C133.38 323.63 125.31 322.57 125.08 322.37C123.76 321.2 127.07 321.24 140.04 322.52C158.11 324.31 162 324.94 162 326.09C162 326.59 161.66 326.93 161.25 326.85C160.84 326.77 152.62 325.81 143 324.72ZM131.5 316.89C119.87 315.91 114.58 315.08 115.31 314.35C116 313.67 149.65 316.03 153.5 317.04C157.54 318.09 144.83 318 131.5 316.89ZM193.32 333.81C188.06 331.27 187.91 322.13 193.08 319.46C200.6 315.57 206.75 326.34 200.55 332.55C197.88 335.21 196.66 335.42 193.32 333.81ZM237.07 325.75C237.12 320.21 237.42 318.16 238 319.5C239.22 322.33 239.22 334 238 334C237.41 334 237.03 330.63 237.07 325.75ZM261.62 330.88C260.66 326.06 260.88 319 262 319C262.58 319 263 322.17 263 326.5C263 330.62 262.83 334 262.62 334C262.42 334 261.97 332.59 261.62 330.88ZM273.75 332.67C272.55 329.73 272.81 317.41 274.05 318.65C274.65 319.25 274.97 322.86 274.8 327.1C274.62 331.61 274.21 333.78 273.75 332.67ZM249.75 332.42C249.34 332.01 249.01 328.48 249.03 324.58C249.05 319.29 249.32 317.94 250.08 319.25C251.22 321.21 250.92 333.6 249.75 332.42ZM286.02 325.75C286.03 320.7 286.32 318.96 287 320C288.28 321.98 288.28 333 287 333C286.42 333 286.01 329.93 286.02 325.75ZM111.17 299.47C100.77 298.27 97.9596 297.61 99.0796 296.64C99.7596 296.05 130.23 298.95 133.5 299.91C138.18 301.29 124.74 301.02 111.17 299.47ZM138.5 292.44C137.95 292.22 130.81 291.38 122.64 290.58C108.25 289.16 102.75 288 110.38 288C116.71 288 142.31 291.07 143.95 292.03C145.12 292.71 144.76 292.93 142.5 292.89C140.85 292.86 139.05 292.66 138.5 292.44ZM115.54 283.33C106.22 282.55 98.3796 281.71 98.1296 281.46C96.8596 280.19 99.9396 280.21 115.54 281.53C124.87 282.32 133.74 282.98 135.25 282.99C136.76 282.99 138 283.45 138 284C138 285.18 137.59 285.16 115.54 283.33ZM219.75 300.42C219.34 300.01 219.01 296.25 219.03 292.08C219.05 286.46 219.32 284.95 220.08 286.24C221.22 288.21 220.91 301.6 219.75 300.42ZM243.64 297.25C242.69 291.51 242.88 285 244 285C244.58 285 245 288.33 245 293C245 297.4 244.83 301 244.63 301C244.43 301 243.98 299.31 243.64 297.25ZM231.75 298.42C231.34 298.01 231 294.73 231 291.13C231 286.56 231.32 284.92 232.05 285.65C232.63 286.23 232.97 289.49 232.8 292.94C232.64 296.37 232.16 298.84 231.75 298.42ZM255.75 298.42C255.34 298.01 255 294.5 255 290.63C255 285.72 255.32 283.92 256.05 284.65C256.64 285.24 256.97 288.65 256.8 292.44C256.63 296.15 256.16 298.84 255.75 298.42ZM268 292.44C268 288.32 268.37 286.11 269 286.5C269.55 286.84 270 289.79 270 293.06C270 296.35 269.55 299 269 299C268.43 299 268 296.15 268 292.44ZM173.45 298.55C171.97 297.06 171 294.94 171 293.18C171 289.12 174.47 285 177.9 285C184.27 285 187.49 294.31 182.69 298.83C179.65 301.67 176.49 301.58 173.45 298.55ZM159.55 260.05C160.86 258.74 181.26 256.16 195.09 255.56C210 254.91 207.81 255.43 182.77 258.48C159.41 261.32 158.2 261.4 159.55 260.05ZM241.15 249.57C241.5 249.18 251.4 248.23 263.15 247.45C288.58 245.76 288 245.77 288 246.86C288 247.34 283.39 248.01 277.75 248.35C254.58 249.75 240.54 250.22 241.15 249.57ZM211 244.88C211 242.73 247.42 238.42 273.09 237.52C281.57 237.23 288.05 237.19 287.5 237.44C286.95 237.69 275.92 238.84 263 240.01C250.07 241.17 233.09 242.91 225.25 243.86C217.41 244.82 211 245.27 211 244.88ZM161.6 210.16C160.89 209.01 168.46 208.38 199.88 206.95C220.49 206.01 226.9 206.15 220.87 207.39C219.57 207.66 208.6 208.36 196.5 208.95C184.4 209.54 171.73 210.28 168.35 210.58C164.78 210.9 161.95 210.73 161.6 210.16ZM140.5 239.93C136.65 238.86 132.25 237.7 130.73 237.36C127.73 236.69 125.86 234.96 128.75 235.53C137.85 237.33 149 240.4 149 241.11C149 242.26 148.76 242.23 140.5 239.93ZM196 177.06C179.58 172.05 170.73 155.85 175.46 139.43C177.71 131.61 185.97 123.17 193.95 120.52C204.59 116.98 216.7 119.77 224.47 127.53C232.25 135.32 235.02 147.41 231.46 158.11C228.94 165.7 220.34 174.23 212.99 176.41C207.37 178.08 200.22 178.35 196 177.06ZM212.67 173.5C218.85 171.67 226.6 165.09 229.12 159.54C231.23 154.89 231.52 144.33 229.67 139.32C227.47 133.35 222.51 127.57 216.94 124.5C212.16 121.86 210.53 121.5 203.5 121.52C197.21 121.53 194.62 122 191.37 123.73C181.6 128.91 176.72 137.1 176.83 148.15C176.9 156.44 179.19 162 184.7 167.28C192.02 174.29 202.31 176.58 212.67 173.5ZM213.67 159.03C209.24 154.99 205.44 152.28 204.64 152.58C201.79 153.68 198.29 147.17 200.87 145.58C201.35 145.28 201.37 143.14 200.91 140.77C199.81 135.07 199.78 126 200.87 126C201.95 126 205 136.64 205 140.41C205 141.94 205.87 144.3 206.94 145.66C208.01 147.02 208.65 148.74 208.37 149.48C208.06 150.28 210.85 153.71 215.17 157.83C219.2 161.68 222.24 165.09 221.91 165.42C221.59 165.74 217.88 162.87 213.67 159.03ZM206.38 149.2C207.26 147.78 205.25 145.69 203.6 146.32C201.34 147.19 201.6 150 203.94 150C205.01 150 206.1 149.64 206.38 149.2Z" fill="#353535"/>
</svg>
