<svg width="447" height="399" viewBox="0 0 447 399" fill="none" xmlns="http://www.w3.org/2000/svg">
<mask id="path-1-inside-1_18173_274" fill="white">
<path d="M208 366.59C192.76 360.85 179.53 354.92 173.08 350.95C167.98 347.82 167.85 347.62 168.48 344.11C169.59 337.91 168.7 338.09 207.5 335.94C218.5 335.33 227.78 334.53 228.12 334.16C228.46 333.8 229.03 332.26 229.39 330.75C229.88 328.67 229.67 328 228.51 328C225.69 328 217.87 323.74 216.3 321.34C215.45 320.04 214.75 317.8 214.75 316.36V313.76L202.81 314.47C195.88 314.88 189.75 315.77 188.19 316.59C186.53 317.45 186.12 317.99 187.13 317.99C188.02 318 189.29 318.65 189.95 319.44C190.92 320.61 190.53 321.2 187.82 322.62C185.41 323.89 181.77 324.43 174.5 324.57C169 324.68 160.23 325.69 155 326.8C127.3 332.7 87.6702 333.43 68.2302 328.4C53.7802 324.66 47.2602 312.36 49.9502 293.92C51.5702 282.84 55.0202 272.66 61.9602 258.42C74.5902 232.53 88.7402 215.85 108.63 203.41C118.19 197.42 135.83 191.03 142.83 191.01L148.16 191L147.52 184.25C146.48 173.31 146.08 172.06 143.43 171.39C140.41 170.64 135.25 164.85 134.36 161.23C133.99 159.73 131.78 156.36 129.44 153.75C122.41 145.88 121.43 135.81 127 128.72C128.22 127.18 129 124.67 129 122.31C129 120.19 129.7 117.44 130.57 116.21C132.3 113.73 138.96 110 141.66 110C142.61 110 144.61 108.83 146.1 107.4C148.03 105.56 150.85 104.41 155.81 103.47C163.15 102.07 166.44 102.37 169.1 104.66C170.48 105.85 171.46 105.7 176.1 103.53C184.68 99.5397 192.57 100.33 198.25 105.75C203.77 111.01 200.25 119.93 191.44 123L188.42 124.05L190.28 134.77C193.61 153.97 191.15 167.62 183.56 172.1C181.6 173.25 180 174.48 180 174.83C180 175.17 180.75 178.95 181.67 183.23C182.78 188.37 183.81 191 184.72 191C185.48 191 189.2 191.7 192.97 192.56C199.17 193.97 200.73 194.88 208.94 201.9C213.95 206.17 220.03 212 222.46 214.84L226.87 220.02L227.44 215.26C228.85 203.3 230.3 195.45 232 190.5L233.85 185.13L231.17 183.43C225.9 180.09 223.94 177.78 225.13 176.34C225.75 175.6 227.31 175 228.62 175C231.49 175 231.47 175.25 229.02 169.86C226.92 165.23 226.4 161 227.92 161C228.43 161 230.17 162.12 231.8 163.48L234.75 165.97L234.26 161.61C233.98 159.14 234.22 156.98 234.8 156.62C235.98 155.9 240 160.55 240 162.63C240 164.73 241.7 164.26 242.29 162C242.58 160.9 243.29 160 243.87 160C245.93 160 247.14 164.23 247.7 173.31C248.18 181.15 248.81 183.67 252 190.5C256.29 199.68 259.37 208.68 261.39 218L262.8 224.5L262.9 212.36C263.09 189.75 267.92 124.75 269.53 123.14C270.18 122.49 270.22 121.8 268.03 147.19C264.2 191.71 263.31 232.39 265.67 255.25C266.19 260.32 266.52 261 268.45 261C271.04 261 279.8 263.86 280.45 264.92C280.7 265.33 278.34 264.79 275.2 263.73C263.79 259.88 250.16 261.51 240.25 267.91C234.78 271.45 234.17 271.61 227.75 271.2L221 270.77L216.88 274.89C212.86 278.9 212.77 279.16 213.21 284.54C213.74 290.9 212.15 290.55 211.29 284.12C210.82 280.63 210.38 280 208.41 280C205.38 280 202 283.68 202 286.98C202 288.41 203.3 291.13 204.89 293.04C207.14 295.72 207.68 297.2 207.29 299.59C206.89 302.06 207.44 303.43 210 306.34C213.61 310.46 214.66 310.76 216.72 308.25C218.07 306.62 218.11 306.63 217.41 308.5C217 309.6 216.47 312.41 216.23 314.75C215.85 318.51 216.17 319.35 218.93 321.94C222.37 325.15 228.75 327.72 229.92 326.36C230.33 325.89 231.89 320.77 233.38 315C237 300.98 240.6 289.73 243.7 282.79C245.72 278.23 246.87 276.88 249.37 276.1C259.29 273 375.17 268.22 378.79 270.76C380.36 271.86 378.83 280.08 373.52 299.05C369.67 312.84 369.79 313.41 376.5 312.6C380.63 312.11 385 308.4 385 305.38C385 304.55 386.58 302.38 388.5 300.56C391.17 298.05 392 296.46 391.98 293.88C391.96 288.85 390.76 287.5 388.52 289.98C387.51 291.09 386.07 292 385.31 292C384.55 292 385.48 290.64 387.38 288.97C393.63 283.48 393.19 274.01 386.4 268.05C382.41 264.54 376.9 263.97 371.93 266.53C369.19 267.95 368.92 267.93 368.41 266.28C366.54 260.26 364.96 258.14 361.5 257C356.59 255.38 351.79 256.46 347.97 260.03C343.82 263.9 342.8 263.87 346.52 259.98C349.98 256.36 355.53 254.5 360.23 255.38C363.86 256.06 368.35 260.09 369.41 263.62C370.03 265.66 370.22 265.69 374.28 264.29C379.79 262.39 384.35 263.7 389.03 268.53C392.41 272.02 392.5 272.34 392.67 280.81C392.76 285.59 393.14 290.68 393.51 292.12C394.33 295.31 391.96 300.33 388.6 302.53C387.3 303.38 385.97 305.41 385.64 307.04C384.77 311.41 379.74 314.25 373.97 313.63L369.44 313.15L367.1 321.32C363.93 332.38 357.42 349.09 354.71 353.08L352.5 356.34L318.5 360.66C269.3 366.92 232.39 371.01 225.5 370.96C220.92 370.93 216.77 369.9 208 366.59ZM250 367.42C257.98 366.59 282.65 363.69 304.83 360.96C327.01 358.23 346.48 356 348.08 356C350.76 356 355.8 352.47 354.7 351.36C354.44 351.1 350.46 351.59 345.86 352.44C329.06 355.53 269.74 362.06 239.5 364.13L222.5 365.3L210.5 360.54C195.12 354.44 177.21 345.92 174 343.17C172.24 341.67 173.28 341.98 177.5 344.23C184.57 348.01 221.35 363.98 221.84 363.49C222.02 363.31 222.53 361.6 222.95 359.7L223.73 356.24L215.62 353.14C205.07 349.1 200.36 346.24 201.84 344.76C202.45 344.15 208.25 343.21 214.72 342.68C221.2 342.14 226.58 341.66 226.67 341.6C226.76 341.54 227.16 340.2 227.56 338.62L228.28 335.74L218.89 336.35C213.73 336.69 201.85 337.45 192.5 338.05C172.77 339.3 170.38 339.94 169.77 344.13C169.37 346.84 169.82 347.39 174.92 350.37C180.95 353.9 199.62 362.11 212.5 366.89C221.47 370.22 222.75 370.23 250 367.42ZM269 360.47C312.67 356.08 353.81 350.52 355.56 348.77C356.93 347.4 364.58 324.97 369.37 308.29C375.77 285.99 378.66 273.32 377.58 272.25C375.38 270.08 281.7 273.38 253.21 276.64C248.11 277.22 247.83 277.41 245.59 281.87C244.32 284.42 242.33 289.26 241.18 292.64C238.39 300.8 229.64 333.85 226.49 348.11C225.11 354.37 223.73 360.58 223.43 361.9L222.89 364.3L233.69 363.62C239.64 363.24 255.52 361.82 269 360.47ZM224.67 349.33C224.37 349.03 221.28 349.12 217.81 349.53L211.5 350.28L217.5 352.54L223.5 354.8L224.35 352.34C224.82 350.98 224.96 349.63 224.67 349.33ZM218.58 348C225.82 348 226 347.94 226 345.51V343.03L218.25 343.64C213.99 343.98 208.7 344.57 206.5 344.94L202.5 345.61L205.5 347.27C207.15 348.18 209.1 348.72 209.83 348.46C210.56 348.21 214.5 348 218.58 348ZM85.0002 328.4C75.7502 326.41 67.0302 323.2 62.5402 320.14C50.3402 311.81 52.2702 294.32 69.0202 261.5C83.0202 234.09 91.5002 221.72 101.92 213.53C105.92 210.39 106.66 209.39 105.46 208.72C102.1 206.84 84.8502 223.16 75.5602 237.02C68.2902 247.85 59.3902 265.67 55.3302 277.5C51.8502 287.68 51.5602 289.36 51.5302 300C51.5002 309.91 51.8002 312.05 53.6502 315.5C57.8902 323.37 63.3002 326.46 76.5002 328.54C87.7702 330.32 93.4702 330.22 85.0002 328.4ZM131.58 328.92C144.55 327.63 157.01 325.39 158.3 324.1C159.66 322.74 160.35 311.02 159.3 307C158.39 303.51 158.34 303.49 148.44 301.28C136.88 298.71 114.09 295.76 109.01 296.18C105.79 296.45 105.53 296.27 105.83 293.99C106.01 292.62 107.87 287.67 109.97 283C112.07 278.33 114.25 273.15 114.81 271.5C115.38 269.85 115.88 269.28 115.92 270.23C115.96 271.18 113.97 276.53 111.5 282.11C109.03 287.69 107 292.87 107 293.63C107 294.58 108.32 295 111.28 295C126.34 295 160.35 301.53 166.82 305.65C169 307.05 169.39 306.91 173.47 303.32L177.81 299.5L177.91 288.71C178.06 271.42 175.55 252.42 170.83 235C168.04 224.71 165.05 218 163.26 218C162.43 218 159.12 219.61 155.88 221.57C146.67 227.17 146.45 226.99 140.12 209.5C137.14 201.25 134.53 194.31 134.34 194.07C133.12 192.62 112.27 201.53 107.1 205.72C102.81 209.19 107.09 209.07 113.07 205.55C119.47 201.78 131.04 196.99 133.67 197.02C134.68 197.03 132.49 198.11 128.8 199.41C121.61 201.94 109 208.6 109 209.86C109 210.28 110.3 211.87 111.89 213.4C115.98 217.31 120.86 227.46 121.98 234.35C122.95 240.36 122.06 250.95 119.95 258.34C118.22 264.42 118.07 262.18 119.7 254.5C121.52 245.91 120.93 232.2 118.48 226.5C116.23 221.24 110.04 211.95 108.35 211.31C106.48 210.59 98.0102 217.95 91.9502 225.57C86.3402 232.61 75.7302 250.8 68.0502 266.5C57.7802 287.52 53.8902 304.05 57.3002 312.19C59.4002 317.2 65.3302 321.23 75.2302 324.39C92.0802 329.77 109.16 331.14 131.58 328.92ZM167.23 321.62C167.64 321.01 167.98 317.74 167.98 314.37C168 307.98 167.39 306.86 162.97 305.18L160.5 304.24V314.14V324.05L163.5 323.4C165.15 323.04 166.83 322.24 167.23 321.62ZM185.9 321.88C189.77 320.54 188.99 319 184.44 319C180.33 319 179.88 317.49 183.75 316.66C187.4 315.89 193.84 311.81 192.27 311.27C191.59 311.04 188.6 311.56 185.62 312.42C178.02 314.63 177.96 314.54 183.53 309.54C189.03 304.62 187.9 303.48 181 307C175.87 309.62 175.44 309.53 177.93 306.37C179.07 304.92 180 302.84 180 301.75C180 299.83 179.91 299.83 177.25 301.51C171.12 305.4 168.95 308.21 169.55 311.45C169.87 313.13 169.7 316.39 169.18 318.71C168.51 321.69 168.56 323.06 169.37 323.43C171.02 324.2 182.29 323.14 185.9 321.88ZM215 312.27C215.27 311.97 214.82 311.49 214 311.2C213.18 310.91 211.04 309.22 209.25 307.44C206.78 304.98 206 303.33 206 300.59C206 298.17 205.01 295.62 203 292.84C199.56 288.1 199.41 287.04 201.55 282.9C203.02 280.06 202.88 279.01 199.07 263.7C196.85 254.79 193.42 239.18 191.46 229C187.09 206.34 187.23 206.78 185.46 210.11C182.49 215.72 173.25 216.41 165.93 211.57C163.77 210.14 162 209.15 162 209.36C162 209.57 163.09 211.72 164.42 214.12C167.96 220.53 173.52 237.96 176.03 250.53C177.61 258.45 178.37 266.71 178.74 280.24C179.12 293.98 179.61 299.26 180.58 300.06C181.49 300.82 181.62 301.86 181.01 303.47L180.13 305.79L184.1 304.23C189.48 302.11 191.01 303.65 187.57 307.73L185.03 310.75L189.67 310.23C193.86 309.76 194.26 309.89 193.81 311.6C193.34 313.39 193.91 313.48 203.91 313.16C209.73 312.97 214.73 312.57 215 312.27ZM209.77 278.19C210.71 278.38 212.91 276.89 214.79 274.81C218.87 270.3 223.64 268.57 229.57 269.46C233.49 270.05 234.66 269.72 239.75 266.6C245.94 262.8 255.08 260 261.28 260H265.14L264.57 254.75C264.25 251.86 263.55 244.32 263 238C261.67 222.77 257.08 204.14 252.35 194.77L250.97 192.05L246.83 194.21C244.22 195.56 240.61 196.43 237.09 196.53L231.5 196.69L230.2 204.09C229.36 208.88 229.01 217.78 229.21 229.28C229.54 248.13 228.74 249.33 227.54 231.77L226.82 221.2L217.27 211.6C212.01 206.32 207.43 202 207.08 202C206.73 202 206.59 203.69 206.75 205.75C206.92 207.81 206.47 210.62 205.76 212C204.62 214.18 203.62 214.56 197.98 215L191.5 215.5L191.7 220.5C191.81 223.25 194.37 236.56 197.39 250.08C204.79 283.26 203.85 280.15 206.16 278.92C207.23 278.34 208.86 278.02 209.77 278.19ZM179.89 212.89C184.49 211.29 186.71 206.19 186.22 198.34C185.91 193.45 185.46 192.09 184.03 191.72C182.69 191.37 181.7 188.98 180.14 182.37C178.96 177.41 178.45 173.36 178.97 173.18C179.49 173.01 181.38 171.87 183.18 170.66C187.76 167.57 189.88 161.48 189.95 151.22L190 142.94L187 145.16C183.22 147.95 179.29 146.9 177.03 142.49C176.19 140.84 175.42 139.35 175.33 139.16C175.23 138.97 174.22 139.11 173.08 139.48C171.59 139.95 171 140.98 171 143.11C171 147.35 167.07 151 162.5 151C158.89 151 154 147.51 154 144.93C154 143.35 146.75 144.74 145.74 146.51C145.33 147.25 143.41 148.37 141.49 149C139.45 149.68 138 150.81 138 151.75C138 154.16 141.02 157 143.59 157C146.5 157 146.59 157.4 148.09 175.99L149.34 191.49L154.68 198.7C159.96 205.85 166.71 211.47 171.84 213.02C175.58 214.15 176.29 214.14 179.89 212.89ZM244.1 193.87C249.6 192.04 250.46 190.78 248.62 187.23L247.06 184.21L242.83 185.67C240.5 186.47 237.82 186.92 236.86 186.67C235.59 186.34 234.71 187.27 233.56 190.13C232.7 192.28 232 194.26 232 194.52C232 195.45 240.75 194.98 244.1 193.87ZM244.45 183.84C246.72 182.81 247 182.09 247 177.39C247 171.12 245.2 162 243.96 162C243.48 162 242.79 163.61 242.42 165.57C241.66 169.62 240.77 169.15 239.07 163.83C238.43 161.81 237.25 159.62 236.45 158.96C234.68 157.49 234.67 157.98 236.38 165.25C237.13 168.41 237.47 171 237.15 171C236.82 171 234.9 169.09 232.88 166.75C230.86 164.41 228.91 162.79 228.54 163.14C228.18 163.5 229.22 166.74 230.86 170.35L233.84 176.92L230.17 176.71C225.35 176.43 225.46 178.07 230.5 181.86C234.86 185.13 240.01 185.86 244.45 183.84ZM167.69 147.83C172.51 143.29 169.31 136 162.5 136C155.62 136 152.67 142.76 157.45 147.55C160.51 150.6 164.62 150.71 167.69 147.83ZM187 144C190.6 140.4 189.14 133.98 184.41 132.58C181.46 131.71 177 135.42 177 138.73C177 141.17 177.1 141.22 178.83 139.65C180.88 137.8 184.55 137.46 185.52 139.04C185.94 139.7 185.31 139.86 183.79 139.48C182.15 139.07 180.86 139.49 179.64 140.84C177.94 142.72 177.96 142.86 180.16 144.4C183.16 146.5 184.58 146.42 187 144ZM154.34 140.04C155.49 134.28 165.87 132.12 169.25 136.94C170.18 138.27 171.34 138.66 173.28 138.29C174.77 138 176 137.29 176 136.7C176 136.11 176.98 134.59 178.17 133.31C180.46 130.88 183.91 130.35 186.92 131.96C188.56 132.83 188.65 132.56 187.99 128.92C187.58 126.72 187.08 124.76 186.88 124.56C185.52 123.25 180.9 123.9 177.77 125.83C172.28 129.23 167.78 129.66 163.59 127.19L160.1 125.12L159.43 127.31C158.38 130.77 155.06 133.81 150.35 135.61C146.62 137.04 146 137.68 146 140.14C146 142.8 146.28 143 149.88 143C153.37 143 153.81 142.71 154.34 140.04ZM35.0002 321.05C36.3402 320.14 49.9302 319.47 48.9202 320.37C48.6902 320.57 45.1202 321.04 41.0002 321.4C35.7802 321.87 33.9602 321.76 35.0002 321.05ZM226.9 299.09C228.61 297.49 230.29 294.78 230.64 293.07C230.98 291.36 231.72 289.67 232.29 289.32C232.94 288.92 233.08 289.56 232.67 291.09C232.32 292.42 232.02 294.03 232.01 294.67C232 296.12 226.23 302 224.82 302C224.25 302 225.19 300.69 226.9 299.09ZM374 301.18C374 299.08 378.67 297.54 381.24 298.78C383.34 299.79 383.24 299.87 379.95 299.93C378 299.97 375.86 300.54 375.2 301.2C374.27 302.13 374 302.13 374 301.18ZM317 257.23C317 254.15 312.1 214.19 309.43 195.5C306.36 174.03 301.04 146.7 297.68 135.18C296.35 130.6 295.62 127.23 296.07 127.68C298.71 130.36 305.98 162.94 310.42 192C314.25 217.08 318.76 259 317.63 259C317.28 259 317 258.21 317 257.23ZM378 253.64C375.79 252.85 373.55 252.7 371.93 253.23C370.38 253.74 368.39 253.65 366.93 253.01C364.55 251.98 364.56 251.97 367.27 252.5C371.1 253.26 373.96 251.57 373.28 248.96C372.83 247.24 373.25 247.4 375.79 249.95C380.78 254.93 388.4 254 391.49 248.02C394.57 242.06 392.58 235.74 387.28 234.68C385.75 234.37 383.19 233.8 381.59 233.41C379.46 232.89 378.37 233.14 377.49 234.35C376.49 235.72 375.75 235.81 373.12 234.89C370.71 234.05 369.6 234.09 368.45 235.04C367.63 235.72 366.68 236.01 366.35 235.68C366.01 235.35 366.92 234.54 368.37 233.88C370.3 233 371.63 232.97 373.37 233.76C375.25 234.61 376.07 234.5 377.36 233.21C378.78 231.79 379.71 231.74 384.71 232.78C392.04 234.32 394.33 236.57 394.33 242.23C394.33 247.26 391.95 251.46 387.9 253.55C384.56 255.28 382.65 255.3 378 253.64ZM299.63 239.25C299.31 236.09 298.78 229.68 298.45 225C297.77 215.49 292.31 162.17 291.53 157.5C291.2 155.5 291.33 155 291.91 156C293.98 159.54 302.41 245 300.69 245C300.42 245 299.94 242.41 299.63 239.25ZM381.5 241.29C382.6 241.02 383.93 240.4 384.45 239.9C386.04 238.4 387.33 238.89 386 240.5C385.32 241.32 383.57 241.95 382.13 241.88C380.06 241.79 379.92 241.67 381.5 241.29ZM328.25 239.37C327.56 239.08 327 238.42 327 237.91C327 237.4 327.87 237.52 328.93 238.19C330.35 239.08 331.47 239.1 333.24 238.3C334.56 237.7 336.82 237.43 338.26 237.71C339.7 237.99 342.36 237.45 344.19 236.52C346.01 235.59 348.62 234.64 350 234.4C356.84 233.2 358.14 232.61 360.96 229.39C368.38 220.95 360.85 208.08 350.17 210.95C345.84 212.12 343.75 214.1 342.21 218.5C341.45 220.67 341.14 220.95 341.09 219.5C341.05 218.4 341.68 216.22 342.49 214.66C344.3 211.19 343.24 208.69 339.02 206.51C333.18 203.49 327.19 205.07 322.05 211C320.11 213.24 320 213.27 320.96 211.29C322.89 207.3 328.3 204 332.91 204C337.84 204 340.7 205.24 343.57 208.64C345.37 210.76 346.01 210.95 348.39 210.04C357.6 206.54 367.18 214.22 365.64 223.88C364.79 229.25 358.67 234.63 352.37 235.55C349.69 235.94 346.25 236.89 344.72 237.67C343.2 238.44 340.27 239.04 338.22 238.99C336.18 238.94 333.38 239.13 332 239.41C330.62 239.68 328.94 239.67 328.25 239.37ZM279.65 212C279.94 199.07 280.53 186.7 280.97 184.5C281.91 179.69 281.1 212.54 279.94 226C279.4 232.3 279.3 227.57 279.65 212ZM321.08 227.74C319.75 227.06 318.44 225.82 318.18 225C317.81 223.82 318.13 223.87 319.68 225.25C320.77 226.21 322.41 227 323.33 227C324.25 227 325 227.45 325 228C325 229.31 324.03 229.24 321.08 227.74ZM282 171C281.99 170.73 280.91 164.74 279.6 157.7C277.35 145.52 276 141.09 276 145.83C276 147.02 275.63 148 275.17 148C273.39 148 271.82 139.97 271.28 128.16L270.72 115.81L268.4 118.66L266.07 121.5L266.05 119C266.04 117.62 266.69 113.69 267.5 110.24L268.98 103.99L265.86 98.0297C262.34 91.3197 261.64 91.2697 255.25 97.3197L252 100.39L251.88 97.4497C251.56 89.1597 253.53 82.0297 258.1 74.9697C260.24 71.6497 262 68.1397 262 67.1797C262 57.7997 275.65 29.4297 279.13 31.5797C281.13 32.8197 287.93 44.1897 290.06 49.8497C291.22 52.9597 292.82 58.8397 293.6 62.9097C294.48 67.4497 296.22 72.2597 298.09 75.3097C299.78 78.0497 301.61 81.4597 302.16 82.8897C303.69 86.8597 304.93 95.5497 304.31 97.9097C303.79 99.9097 303.56 99.8397 299.88 96.5097C295.13 92.2197 293.51 92.1097 292.15 95.9997C291.57 97.6497 290.7 98.9997 290.21 98.9997C288.07 98.9997 287.05 103.9 288.39 107.72C289.12 109.8 290.04 113.75 290.44 116.5C291.03 120.56 290.92 121.26 289.88 120.25C287.73 118.15 287.09 118.84 288.07 122.24C289.11 125.88 289.36 145 288.36 145C288.01 145 287.16 144.23 286.47 143.29C285.44 141.89 285.1 143.96 284.5 155.17C284.1 162.64 283.38 169.37 282.9 170.13C282.42 170.88 282.02 171.27 282 171ZM286.99 101.51C288.07 100.22 287.82 100.17 285.02 101.14C281.97 102.21 275.39 101.86 270 100.35C267.75 99.7197 267.64 99.8197 268.87 101.33C270.74 103.61 285.13 103.75 286.99 101.51ZM287.54 98.8897C289.91 97.7597 290.7 96.4597 291.76 91.9997C293.58 84.3197 292.84 62.0797 290.56 55.7997C288.96 51.4197 288.56 51.0597 284.67 50.4797C282.38 50.1497 277.59 50.0097 274.04 50.1797L267.57 50.4997L265.67 56.4997C262.22 67.4097 262.41 91.1897 266 96.9897C267.14 98.8397 275.87 101.02 280.56 100.63C282.8 100.44 285.94 99.6597 287.54 98.8897ZM291.62 321.19C290.71 319.72 302.64 302.25 305.07 301.48C307.59 300.68 309.6 302.29 312.05 307.09C314.95 312.78 315.56 318.29 313.48 320.02C311.37 321.77 292.6 322.77 291.62 321.19ZM311.25 319.49C313.45 318.6 313.54 314.23 311.46 309.25C309.23 303.92 307.12 301.86 305.03 302.98C303.01 304.06 293 318.27 293 320.05C293 320.97 295.1 321.14 301.25 320.74C305.79 320.44 310.29 319.88 311.25 319.49ZM165.49 163.99C164.5 162.89 163.9 161.76 164.18 161.49C164.45 161.21 165.5 161.89 166.49 162.99C168.55 165.26 171.02 165.58 172.8 163.8C173.6 163 174 162.96 174 163.69C174 166.49 167.95 166.7 165.49 163.99ZM174.96 153.89C178.43 152.51 178.41 152.74 175.5 147C174.05 144.14 173.35 142.1 173.95 142.47C175.34 143.33 179 150.49 179 152.35C179 153.89 176.86 155.04 174.17 154.94C173.08 154.9 173.36 154.53 174.96 153.89ZM160 144.39C160 141.76 165.13 139.78 166.44 141.91C166.75 142.41 166.03 142.56 164.85 142.25C163.43 141.88 162.24 142.32 161.35 143.54C160.61 144.55 160 144.94 160 144.39ZM276.65 93.4697C275.7 86.5397 275.86 72.2097 276.89 71.5697C277.37 71.2697 278.34 71.6997 279.03 72.5397C279.94 73.6297 280.14 76.8997 279.76 84.4097C279.14 96.5697 277.66 100.86 276.65 93.4697ZM274.5 67.8097C271.64 66.1797 271.03 64.9697 271.02 60.8197C271 58.0297 271.63 56.6497 273.63 55.0697C277.1 52.3497 279.55 52.4597 282.55 55.4497C285.99 58.8997 285.9 64.1397 282.37 66.9297C279.41 69.2497 277.44 69.4697 274.5 67.8097Z"/>
</mask>
<path d="M208 366.59C192.76 360.85 179.53 354.92 173.08 350.95C167.98 347.82 167.85 347.62 168.48 344.11C169.59 337.91 168.7 338.09 207.5 335.94C218.5 335.33 227.78 334.53 228.12 334.16C228.46 333.8 229.03 332.26 229.39 330.75C229.88 328.67 229.67 328 228.51 328C225.69 328 217.87 323.74 216.3 321.34C215.45 320.04 214.75 317.8 214.75 316.36V313.76L202.81 314.47C195.88 314.88 189.75 315.77 188.19 316.59C186.53 317.45 186.12 317.99 187.13 317.99C188.02 318 189.29 318.65 189.95 319.44C190.92 320.61 190.53 321.2 187.82 322.62C185.41 323.89 181.77 324.43 174.5 324.57C169 324.68 160.23 325.69 155 326.8C127.3 332.7 87.6702 333.43 68.2302 328.4C53.7802 324.66 47.2602 312.36 49.9502 293.92C51.5702 282.84 55.0202 272.66 61.9602 258.42C74.5902 232.53 88.7402 215.85 108.63 203.41C118.19 197.42 135.83 191.03 142.83 191.01L148.16 191L147.52 184.25C146.48 173.31 146.08 172.06 143.43 171.39C140.41 170.64 135.25 164.85 134.36 161.23C133.99 159.73 131.78 156.36 129.44 153.75C122.41 145.88 121.43 135.81 127 128.72C128.22 127.18 129 124.67 129 122.31C129 120.19 129.7 117.44 130.57 116.21C132.3 113.73 138.96 110 141.66 110C142.61 110 144.61 108.83 146.1 107.4C148.03 105.56 150.85 104.41 155.81 103.47C163.15 102.07 166.44 102.37 169.1 104.66C170.48 105.85 171.46 105.7 176.1 103.53C184.68 99.5397 192.57 100.33 198.25 105.75C203.77 111.01 200.25 119.93 191.44 123L188.42 124.05L190.28 134.77C193.61 153.97 191.15 167.62 183.56 172.1C181.6 173.25 180 174.48 180 174.83C180 175.17 180.75 178.95 181.67 183.23C182.78 188.37 183.81 191 184.72 191C185.48 191 189.2 191.7 192.97 192.56C199.17 193.97 200.73 194.88 208.94 201.9C213.95 206.17 220.03 212 222.46 214.84L226.87 220.02L227.44 215.26C228.85 203.3 230.3 195.45 232 190.5L233.85 185.13L231.17 183.43C225.9 180.09 223.94 177.78 225.13 176.34C225.75 175.6 227.31 175 228.62 175C231.49 175 231.47 175.25 229.02 169.86C226.92 165.23 226.4 161 227.92 161C228.43 161 230.17 162.12 231.8 163.48L234.75 165.97L234.26 161.61C233.98 159.14 234.22 156.98 234.8 156.62C235.98 155.9 240 160.55 240 162.63C240 164.73 241.7 164.26 242.29 162C242.58 160.9 243.29 160 243.87 160C245.93 160 247.14 164.23 247.7 173.31C248.18 181.15 248.81 183.67 252 190.5C256.29 199.68 259.37 208.68 261.39 218L262.8 224.5L262.9 212.36C263.09 189.75 267.92 124.75 269.53 123.14C270.18 122.49 270.22 121.8 268.03 147.19C264.2 191.71 263.31 232.39 265.67 255.25C266.19 260.32 266.52 261 268.45 261C271.04 261 279.8 263.86 280.45 264.92C280.7 265.33 278.34 264.79 275.2 263.73C263.79 259.88 250.16 261.51 240.25 267.91C234.78 271.45 234.17 271.61 227.75 271.2L221 270.77L216.88 274.89C212.86 278.9 212.77 279.16 213.21 284.54C213.74 290.9 212.15 290.55 211.29 284.12C210.82 280.63 210.38 280 208.41 280C205.38 280 202 283.68 202 286.98C202 288.41 203.3 291.13 204.89 293.04C207.14 295.72 207.68 297.2 207.29 299.59C206.89 302.06 207.44 303.43 210 306.34C213.61 310.46 214.66 310.76 216.72 308.25C218.07 306.62 218.11 306.63 217.41 308.5C217 309.6 216.47 312.41 216.23 314.75C215.85 318.51 216.17 319.35 218.93 321.94C222.37 325.15 228.75 327.72 229.92 326.36C230.33 325.89 231.89 320.77 233.38 315C237 300.98 240.6 289.73 243.7 282.79C245.72 278.23 246.87 276.88 249.37 276.1C259.29 273 375.17 268.22 378.79 270.76C380.36 271.86 378.83 280.08 373.52 299.05C369.67 312.84 369.79 313.41 376.5 312.6C380.63 312.11 385 308.4 385 305.38C385 304.55 386.58 302.38 388.5 300.56C391.17 298.05 392 296.46 391.98 293.88C391.96 288.85 390.76 287.5 388.52 289.98C387.51 291.09 386.07 292 385.31 292C384.55 292 385.48 290.64 387.38 288.97C393.63 283.48 393.19 274.01 386.4 268.05C382.41 264.54 376.9 263.97 371.93 266.53C369.19 267.95 368.92 267.93 368.41 266.28C366.54 260.26 364.96 258.14 361.5 257C356.59 255.38 351.79 256.46 347.97 260.03C343.82 263.9 342.8 263.87 346.52 259.98C349.98 256.36 355.53 254.5 360.23 255.38C363.86 256.06 368.35 260.09 369.41 263.62C370.03 265.66 370.22 265.69 374.28 264.29C379.79 262.39 384.35 263.7 389.03 268.53C392.41 272.02 392.5 272.34 392.67 280.81C392.76 285.59 393.14 290.68 393.51 292.12C394.33 295.31 391.96 300.33 388.6 302.53C387.3 303.38 385.97 305.41 385.64 307.04C384.77 311.41 379.74 314.25 373.97 313.63L369.44 313.15L367.1 321.32C363.93 332.38 357.42 349.09 354.71 353.08L352.5 356.34L318.5 360.66C269.3 366.92 232.39 371.01 225.5 370.96C220.92 370.93 216.77 369.9 208 366.59ZM250 367.42C257.98 366.59 282.65 363.69 304.83 360.96C327.01 358.23 346.48 356 348.08 356C350.76 356 355.8 352.47 354.7 351.36C354.44 351.1 350.46 351.59 345.86 352.44C329.06 355.53 269.74 362.06 239.5 364.13L222.5 365.3L210.5 360.54C195.12 354.44 177.21 345.92 174 343.17C172.24 341.67 173.28 341.98 177.5 344.23C184.57 348.01 221.35 363.98 221.84 363.49C222.02 363.31 222.53 361.6 222.95 359.7L223.73 356.24L215.62 353.14C205.07 349.1 200.36 346.24 201.84 344.76C202.45 344.15 208.25 343.21 214.72 342.68C221.2 342.14 226.58 341.66 226.67 341.6C226.76 341.54 227.16 340.2 227.56 338.62L228.28 335.74L218.89 336.35C213.73 336.69 201.85 337.45 192.5 338.05C172.77 339.3 170.38 339.94 169.77 344.13C169.37 346.84 169.82 347.39 174.92 350.37C180.95 353.9 199.62 362.11 212.5 366.89C221.47 370.22 222.75 370.23 250 367.42ZM269 360.47C312.67 356.08 353.81 350.52 355.56 348.77C356.93 347.4 364.58 324.97 369.37 308.29C375.77 285.99 378.66 273.32 377.58 272.25C375.38 270.08 281.7 273.38 253.21 276.64C248.11 277.22 247.83 277.41 245.59 281.87C244.32 284.42 242.33 289.26 241.18 292.64C238.39 300.8 229.64 333.85 226.49 348.11C225.11 354.37 223.73 360.58 223.43 361.9L222.89 364.3L233.69 363.62C239.64 363.24 255.52 361.82 269 360.47ZM224.67 349.33C224.37 349.03 221.28 349.12 217.81 349.53L211.5 350.28L217.5 352.54L223.5 354.8L224.35 352.34C224.82 350.98 224.96 349.63 224.67 349.33ZM218.58 348C225.82 348 226 347.94 226 345.51V343.03L218.25 343.64C213.99 343.98 208.7 344.57 206.5 344.94L202.5 345.61L205.5 347.27C207.15 348.18 209.1 348.72 209.83 348.46C210.56 348.21 214.5 348 218.58 348ZM85.0002 328.4C75.7502 326.41 67.0302 323.2 62.5402 320.14C50.3402 311.81 52.2702 294.32 69.0202 261.5C83.0202 234.09 91.5002 221.72 101.92 213.53C105.92 210.39 106.66 209.39 105.46 208.72C102.1 206.84 84.8502 223.16 75.5602 237.02C68.2902 247.85 59.3902 265.67 55.3302 277.5C51.8502 287.68 51.5602 289.36 51.5302 300C51.5002 309.91 51.8002 312.05 53.6502 315.5C57.8902 323.37 63.3002 326.46 76.5002 328.54C87.7702 330.32 93.4702 330.22 85.0002 328.4ZM131.58 328.92C144.55 327.63 157.01 325.39 158.3 324.1C159.66 322.74 160.35 311.02 159.3 307C158.39 303.51 158.34 303.49 148.44 301.28C136.88 298.71 114.09 295.76 109.01 296.18C105.79 296.45 105.53 296.27 105.83 293.99C106.01 292.62 107.87 287.67 109.97 283C112.07 278.33 114.25 273.15 114.81 271.5C115.38 269.85 115.88 269.28 115.92 270.23C115.96 271.18 113.97 276.53 111.5 282.11C109.03 287.69 107 292.87 107 293.63C107 294.58 108.32 295 111.28 295C126.34 295 160.35 301.53 166.82 305.65C169 307.05 169.39 306.91 173.47 303.32L177.81 299.5L177.91 288.71C178.06 271.42 175.55 252.42 170.83 235C168.04 224.71 165.05 218 163.26 218C162.43 218 159.12 219.61 155.88 221.57C146.67 227.17 146.45 226.99 140.12 209.5C137.14 201.25 134.53 194.31 134.34 194.07C133.12 192.62 112.27 201.53 107.1 205.72C102.81 209.19 107.09 209.07 113.07 205.55C119.47 201.78 131.04 196.99 133.67 197.02C134.68 197.03 132.49 198.11 128.8 199.41C121.61 201.94 109 208.6 109 209.86C109 210.28 110.3 211.87 111.89 213.4C115.98 217.31 120.86 227.46 121.98 234.35C122.95 240.36 122.06 250.95 119.95 258.34C118.22 264.42 118.07 262.18 119.7 254.5C121.52 245.91 120.93 232.2 118.48 226.5C116.23 221.24 110.04 211.95 108.35 211.31C106.48 210.59 98.0102 217.95 91.9502 225.57C86.3402 232.61 75.7302 250.8 68.0502 266.5C57.7802 287.52 53.8902 304.05 57.3002 312.19C59.4002 317.2 65.3302 321.23 75.2302 324.39C92.0802 329.77 109.16 331.14 131.58 328.92ZM167.23 321.62C167.64 321.01 167.98 317.74 167.98 314.37C168 307.98 167.39 306.86 162.97 305.18L160.5 304.24V314.14V324.05L163.5 323.4C165.15 323.04 166.83 322.24 167.23 321.62ZM185.9 321.88C189.77 320.54 188.99 319 184.44 319C180.33 319 179.88 317.49 183.75 316.66C187.4 315.89 193.84 311.81 192.27 311.27C191.59 311.04 188.6 311.56 185.62 312.42C178.02 314.63 177.96 314.54 183.53 309.54C189.03 304.62 187.9 303.48 181 307C175.87 309.62 175.44 309.53 177.93 306.37C179.07 304.92 180 302.84 180 301.75C180 299.83 179.91 299.83 177.25 301.51C171.12 305.4 168.95 308.21 169.55 311.45C169.87 313.13 169.7 316.39 169.18 318.71C168.51 321.69 168.56 323.06 169.37 323.43C171.02 324.2 182.29 323.14 185.9 321.88ZM215 312.27C215.27 311.97 214.82 311.49 214 311.2C213.18 310.91 211.04 309.22 209.25 307.44C206.78 304.98 206 303.33 206 300.59C206 298.17 205.01 295.62 203 292.84C199.56 288.1 199.41 287.04 201.55 282.9C203.02 280.06 202.88 279.01 199.07 263.7C196.85 254.79 193.42 239.18 191.46 229C187.09 206.34 187.23 206.78 185.46 210.11C182.49 215.72 173.25 216.41 165.93 211.57C163.77 210.14 162 209.15 162 209.36C162 209.57 163.09 211.72 164.42 214.12C167.96 220.53 173.52 237.96 176.03 250.53C177.61 258.45 178.37 266.71 178.74 280.24C179.12 293.98 179.61 299.26 180.58 300.06C181.49 300.82 181.62 301.86 181.01 303.47L180.13 305.79L184.1 304.23C189.48 302.11 191.01 303.65 187.57 307.73L185.03 310.75L189.67 310.23C193.86 309.76 194.26 309.89 193.81 311.6C193.34 313.39 193.91 313.48 203.91 313.16C209.73 312.97 214.73 312.57 215 312.27ZM209.77 278.19C210.71 278.38 212.91 276.89 214.79 274.81C218.87 270.3 223.64 268.57 229.57 269.46C233.49 270.05 234.66 269.72 239.75 266.6C245.94 262.8 255.08 260 261.28 260H265.14L264.57 254.75C264.25 251.86 263.55 244.32 263 238C261.67 222.77 257.08 204.14 252.35 194.77L250.97 192.05L246.83 194.21C244.22 195.56 240.61 196.43 237.09 196.53L231.5 196.69L230.2 204.09C229.36 208.88 229.01 217.78 229.21 229.28C229.54 248.13 228.74 249.33 227.54 231.77L226.82 221.2L217.27 211.6C212.01 206.32 207.43 202 207.08 202C206.73 202 206.59 203.69 206.75 205.75C206.92 207.81 206.47 210.62 205.76 212C204.62 214.18 203.62 214.56 197.98 215L191.5 215.5L191.7 220.5C191.81 223.25 194.37 236.56 197.39 250.08C204.79 283.26 203.85 280.15 206.16 278.92C207.23 278.34 208.86 278.02 209.77 278.19ZM179.89 212.89C184.49 211.29 186.71 206.19 186.22 198.34C185.91 193.45 185.46 192.09 184.03 191.72C182.69 191.37 181.7 188.98 180.14 182.37C178.96 177.41 178.45 173.36 178.97 173.18C179.49 173.01 181.38 171.87 183.18 170.66C187.76 167.57 189.88 161.48 189.95 151.22L190 142.94L187 145.16C183.22 147.95 179.29 146.9 177.03 142.49C176.19 140.84 175.42 139.35 175.33 139.16C175.23 138.97 174.22 139.11 173.08 139.48C171.59 139.95 171 140.98 171 143.11C171 147.35 167.07 151 162.5 151C158.89 151 154 147.51 154 144.93C154 143.35 146.75 144.74 145.74 146.51C145.33 147.25 143.41 148.37 141.49 149C139.45 149.68 138 150.81 138 151.75C138 154.16 141.02 157 143.59 157C146.5 157 146.59 157.4 148.09 175.99L149.34 191.49L154.68 198.7C159.96 205.85 166.71 211.47 171.84 213.02C175.58 214.15 176.29 214.14 179.89 212.89ZM244.1 193.87C249.6 192.04 250.46 190.78 248.62 187.23L247.06 184.21L242.83 185.67C240.5 186.47 237.82 186.92 236.86 186.67C235.59 186.34 234.71 187.27 233.56 190.13C232.7 192.28 232 194.26 232 194.52C232 195.45 240.75 194.98 244.1 193.87ZM244.45 183.84C246.72 182.81 247 182.09 247 177.39C247 171.12 245.2 162 243.96 162C243.48 162 242.79 163.61 242.42 165.57C241.66 169.62 240.77 169.15 239.07 163.83C238.43 161.81 237.25 159.62 236.45 158.96C234.68 157.49 234.67 157.98 236.38 165.25C237.13 168.41 237.47 171 237.15 171C236.82 171 234.9 169.09 232.88 166.75C230.86 164.41 228.91 162.79 228.54 163.14C228.18 163.5 229.22 166.74 230.86 170.35L233.84 176.92L230.17 176.71C225.35 176.43 225.46 178.07 230.5 181.86C234.86 185.13 240.01 185.86 244.45 183.84ZM167.69 147.83C172.51 143.29 169.31 136 162.5 136C155.62 136 152.67 142.76 157.45 147.55C160.51 150.6 164.62 150.71 167.69 147.83ZM187 144C190.6 140.4 189.14 133.98 184.41 132.58C181.46 131.71 177 135.42 177 138.73C177 141.17 177.1 141.22 178.83 139.65C180.88 137.8 184.55 137.46 185.52 139.04C185.94 139.7 185.31 139.86 183.79 139.48C182.15 139.07 180.86 139.49 179.64 140.84C177.94 142.72 177.96 142.86 180.16 144.4C183.16 146.5 184.58 146.42 187 144ZM154.34 140.04C155.49 134.28 165.87 132.12 169.25 136.94C170.18 138.27 171.34 138.66 173.28 138.29C174.77 138 176 137.29 176 136.7C176 136.11 176.98 134.59 178.17 133.31C180.46 130.88 183.91 130.35 186.92 131.96C188.56 132.83 188.65 132.56 187.99 128.92C187.58 126.72 187.08 124.76 186.88 124.56C185.52 123.25 180.9 123.9 177.77 125.83C172.28 129.23 167.78 129.66 163.59 127.19L160.1 125.12L159.43 127.31C158.38 130.77 155.06 133.81 150.35 135.61C146.62 137.04 146 137.68 146 140.14C146 142.8 146.28 143 149.88 143C153.37 143 153.81 142.71 154.34 140.04ZM35.0002 321.05C36.3402 320.14 49.9302 319.47 48.9202 320.37C48.6902 320.57 45.1202 321.04 41.0002 321.4C35.7802 321.87 33.9602 321.76 35.0002 321.05ZM226.9 299.09C228.61 297.49 230.29 294.78 230.64 293.07C230.98 291.36 231.72 289.67 232.29 289.32C232.94 288.92 233.08 289.56 232.67 291.09C232.32 292.42 232.02 294.03 232.01 294.67C232 296.12 226.23 302 224.82 302C224.25 302 225.19 300.69 226.9 299.09ZM374 301.18C374 299.08 378.67 297.54 381.24 298.78C383.34 299.79 383.24 299.87 379.95 299.93C378 299.97 375.86 300.54 375.2 301.2C374.27 302.13 374 302.13 374 301.18ZM317 257.23C317 254.15 312.1 214.19 309.43 195.5C306.36 174.03 301.04 146.7 297.68 135.18C296.35 130.6 295.62 127.23 296.07 127.68C298.71 130.36 305.98 162.94 310.42 192C314.25 217.08 318.76 259 317.63 259C317.28 259 317 258.21 317 257.23ZM378 253.64C375.79 252.85 373.55 252.7 371.93 253.23C370.38 253.74 368.39 253.65 366.93 253.01C364.55 251.98 364.56 251.97 367.27 252.5C371.1 253.26 373.96 251.57 373.28 248.96C372.83 247.24 373.25 247.4 375.79 249.95C380.78 254.93 388.4 254 391.49 248.02C394.57 242.06 392.58 235.74 387.28 234.68C385.75 234.37 383.19 233.8 381.59 233.41C379.46 232.89 378.37 233.14 377.49 234.35C376.49 235.72 375.75 235.81 373.12 234.89C370.71 234.05 369.6 234.09 368.45 235.04C367.63 235.72 366.68 236.01 366.35 235.68C366.01 235.35 366.92 234.54 368.37 233.88C370.3 233 371.63 232.97 373.37 233.76C375.25 234.61 376.07 234.5 377.36 233.21C378.78 231.79 379.71 231.74 384.71 232.78C392.04 234.32 394.33 236.57 394.33 242.23C394.33 247.26 391.95 251.46 387.9 253.55C384.56 255.28 382.65 255.3 378 253.64ZM299.63 239.25C299.31 236.09 298.78 229.68 298.45 225C297.77 215.49 292.31 162.17 291.53 157.5C291.2 155.5 291.33 155 291.91 156C293.98 159.54 302.41 245 300.69 245C300.42 245 299.94 242.41 299.63 239.25ZM381.5 241.29C382.6 241.02 383.93 240.4 384.45 239.9C386.04 238.4 387.33 238.89 386 240.5C385.32 241.32 383.57 241.95 382.13 241.88C380.06 241.79 379.92 241.67 381.5 241.29ZM328.25 239.37C327.56 239.08 327 238.42 327 237.91C327 237.4 327.87 237.52 328.93 238.19C330.35 239.08 331.47 239.1 333.24 238.3C334.56 237.7 336.82 237.43 338.26 237.71C339.7 237.99 342.36 237.45 344.19 236.52C346.01 235.59 348.62 234.64 350 234.4C356.84 233.2 358.14 232.61 360.96 229.39C368.38 220.95 360.85 208.08 350.17 210.95C345.84 212.12 343.75 214.1 342.21 218.5C341.45 220.67 341.14 220.95 341.09 219.5C341.05 218.4 341.68 216.22 342.49 214.66C344.3 211.19 343.24 208.69 339.02 206.51C333.18 203.49 327.19 205.07 322.05 211C320.11 213.24 320 213.27 320.96 211.29C322.89 207.3 328.3 204 332.91 204C337.84 204 340.7 205.24 343.57 208.64C345.37 210.76 346.01 210.95 348.39 210.04C357.6 206.54 367.18 214.22 365.64 223.88C364.79 229.25 358.67 234.63 352.37 235.55C349.69 235.94 346.25 236.89 344.72 237.67C343.2 238.44 340.27 239.04 338.22 238.99C336.18 238.94 333.38 239.13 332 239.41C330.62 239.68 328.94 239.67 328.25 239.37ZM279.65 212C279.94 199.07 280.53 186.7 280.97 184.5C281.91 179.69 281.1 212.54 279.94 226C279.4 232.3 279.3 227.57 279.65 212ZM321.08 227.74C319.75 227.06 318.44 225.82 318.18 225C317.81 223.82 318.13 223.87 319.68 225.25C320.77 226.21 322.41 227 323.33 227C324.25 227 325 227.45 325 228C325 229.31 324.03 229.24 321.08 227.74ZM282 171C281.99 170.73 280.91 164.74 279.6 157.7C277.35 145.52 276 141.09 276 145.83C276 147.02 275.63 148 275.17 148C273.39 148 271.82 139.97 271.28 128.16L270.72 115.81L268.4 118.66L266.07 121.5L266.05 119C266.04 117.62 266.69 113.69 267.5 110.24L268.98 103.99L265.86 98.0297C262.34 91.3197 261.64 91.2697 255.25 97.3197L252 100.39L251.88 97.4497C251.56 89.1597 253.53 82.0297 258.1 74.9697C260.24 71.6497 262 68.1397 262 67.1797C262 57.7997 275.65 29.4297 279.13 31.5797C281.13 32.8197 287.93 44.1897 290.06 49.8497C291.22 52.9597 292.82 58.8397 293.6 62.9097C294.48 67.4497 296.22 72.2597 298.09 75.3097C299.78 78.0497 301.61 81.4597 302.16 82.8897C303.69 86.8597 304.93 95.5497 304.31 97.9097C303.79 99.9097 303.56 99.8397 299.88 96.5097C295.13 92.2197 293.51 92.1097 292.15 95.9997C291.57 97.6497 290.7 98.9997 290.21 98.9997C288.07 98.9997 287.05 103.9 288.39 107.72C289.12 109.8 290.04 113.75 290.44 116.5C291.03 120.56 290.92 121.26 289.88 120.25C287.73 118.15 287.09 118.84 288.07 122.24C289.11 125.88 289.36 145 288.36 145C288.01 145 287.16 144.23 286.47 143.29C285.44 141.89 285.1 143.96 284.5 155.17C284.1 162.64 283.38 169.37 282.9 170.13C282.42 170.88 282.02 171.27 282 171ZM286.99 101.51C288.07 100.22 287.82 100.17 285.02 101.14C281.97 102.21 275.39 101.86 270 100.35C267.75 99.7197 267.64 99.8197 268.87 101.33C270.74 103.61 285.13 103.75 286.99 101.51ZM287.54 98.8897C289.91 97.7597 290.7 96.4597 291.76 91.9997C293.58 84.3197 292.84 62.0797 290.56 55.7997C288.96 51.4197 288.56 51.0597 284.67 50.4797C282.38 50.1497 277.59 50.0097 274.04 50.1797L267.57 50.4997L265.67 56.4997C262.22 67.4097 262.41 91.1897 266 96.9897C267.14 98.8397 275.87 101.02 280.56 100.63C282.8 100.44 285.94 99.6597 287.54 98.8897ZM291.62 321.19C290.71 319.72 302.64 302.25 305.07 301.48C307.59 300.68 309.6 302.29 312.05 307.09C314.95 312.78 315.56 318.29 313.48 320.02C311.37 321.77 292.6 322.77 291.62 321.19ZM311.25 319.49C313.45 318.6 313.54 314.23 311.46 309.25C309.23 303.92 307.12 301.86 305.03 302.98C303.01 304.06 293 318.27 293 320.05C293 320.97 295.1 321.14 301.25 320.74C305.79 320.44 310.29 319.88 311.25 319.49ZM165.49 163.99C164.5 162.89 163.9 161.76 164.18 161.49C164.45 161.21 165.5 161.89 166.49 162.99C168.55 165.26 171.02 165.58 172.8 163.8C173.6 163 174 162.96 174 163.69C174 166.49 167.95 166.7 165.49 163.99ZM174.96 153.89C178.43 152.51 178.41 152.74 175.5 147C174.05 144.14 173.35 142.1 173.95 142.47C175.34 143.33 179 150.49 179 152.35C179 153.89 176.86 155.04 174.17 154.94C173.08 154.9 173.36 154.53 174.96 153.89ZM160 144.39C160 141.76 165.13 139.78 166.44 141.91C166.75 142.41 166.03 142.56 164.85 142.25C163.43 141.88 162.24 142.32 161.35 143.54C160.61 144.55 160 144.94 160 144.39ZM276.65 93.4697C275.7 86.5397 275.86 72.2097 276.89 71.5697C277.37 71.2697 278.34 71.6997 279.03 72.5397C279.94 73.6297 280.14 76.8997 279.76 84.4097C279.14 96.5697 277.66 100.86 276.65 93.4697ZM274.5 67.8097C271.64 66.1797 271.03 64.9697 271.02 60.8197C271 58.0297 271.63 56.6497 273.63 55.0697C277.1 52.3497 279.55 52.4597 282.55 55.4497C285.99 58.8997 285.9 64.1397 282.37 66.9297C279.41 69.2497 277.44 69.4697 274.5 67.8097Z" fill="#DEEDFF" stroke="#1565C0" stroke-width="2" mask="url(#path-1-inside-1_18173_274)"/>
</svg>
